<svg width="184" height="24" viewBox="0 0 184 24" fill="none" xmlns="http://www.w3.org/2000/svg">
<path d="M39.3539 8.07552H11.9382C13.3514 5.20756 16.2827 3.23688 19.6702 3.23688C21.5301 3.23688 23.252 3.83188 24.6617 4.84342H29.1865C27.0286 1.90404 23.5691 0 19.6702 0C14.8851 0 10.7642 2.86607 8.89787 6.99063C8.59333 7.66364 8.07272 8.22698 7.38725 8.48867L0 11.3088H15.6081C16.9668 11.3088 18.0684 12.421 18.0684 13.7929V20.5184C14.912 19.921 12.3614 17.591 11.4232 14.5421H8.10999C9.28155 19.8984 14.0115 23.9066 19.669 23.9066C25.7145 23.9066 30.6869 19.6216 31.4015 12.9779C31.5095 11.9737 32.0955 11.0597 33.0222 10.6788L39.3539 8.07552ZM21.2708 20.5172V13.7917C21.2708 12.4198 22.3723 11.3076 23.7311 11.3076H28.2766C28.2921 11.5206 28.3026 11.7349 28.3026 11.9526C28.3026 16.2141 25.2735 19.7592 21.2708 20.5172Z" fill="white"/>
<path d="M49.3005 18.6307V7.85881H45.7283V5.55713H55.5426V7.85881H51.9152V18.6307H49.3005Z" fill="white"/>
<path d="M55.8055 18.6307V9.6265H58.2176V10.9339H58.2544C58.9357 10.0132 59.9117 9.4976 60.9612 9.4976H61.1454V12.1307C60.8876 12.1123 60.6482 12.1123 60.5009 12.1123C59.0094 12.1123 58.2176 13.1066 58.2176 14.4692V18.6307H55.8055Z" fill="white"/>
<path d="M65.437 18.7964C63.4852 18.7964 62.1226 17.8021 62.1226 15.0585V9.6265H64.5163V14.4324C64.5163 16.0712 65.0135 16.6236 66.1367 16.6236C67.1863 16.6236 68.1253 15.7398 68.1253 14.0089V9.6265H70.5559V18.6307H68.1253V17.5627L68.0885 17.5443C67.4072 18.3729 66.4497 18.7964 65.437 18.7964Z" fill="white"/>
<path d="M80.8894 14.0457C80.8894 14.3403 80.8526 14.7638 80.8342 14.9112H74.5184C74.813 15.9975 75.6784 16.642 76.8937 16.642C77.9065 16.642 78.6062 16.2185 79.0849 15.6293L80.6501 17.0839C79.8951 18.0599 78.7351 18.7964 76.728 18.7964C73.966 18.7964 72.0142 16.9366 72.0142 14.1194C72.0142 11.3758 73.9108 9.4976 76.5807 9.4976C79.1218 9.4976 80.8894 11.4126 80.8894 14.0457ZM76.5623 11.5967C75.5864 11.5967 74.813 12.1491 74.5368 13.1803H78.4957C78.2563 12.2228 77.6119 11.5967 76.5623 11.5967Z" fill="white"/>
<rect x="82.8572" y="0.759277" width="100.552" height="23.1505" rx="2.51613" fill="url(#paint0_linear_795_167)"/>
<path d="M86.8069 18.6336V5.56005H95.4796V7.86173H89.3664V11.3603H94.4669V13.6804H89.3664V18.6336H86.8069Z" fill="white"/>
<path d="M100.614 18.7993C97.7413 18.7993 95.8263 16.8291 95.8263 14.1407C95.8263 11.4523 97.7413 9.50052 100.614 9.50052C103.413 9.50052 105.383 11.3787 105.383 14.1407C105.383 16.8843 103.413 18.7993 100.614 18.7993ZM100.614 16.6265C101.903 16.6265 102.934 15.6138 102.934 14.1407C102.934 12.6676 101.94 11.6549 100.614 11.6549C99.2144 11.6549 98.2753 12.7229 98.2753 14.1407C98.2753 15.5401 99.2328 16.6265 100.614 16.6265Z" fill="white"/>
<path d="M110.055 18.7993C108.103 18.7993 106.74 17.805 106.74 15.0614V9.62942H109.134V14.4353C109.134 16.0741 109.631 16.6265 110.755 16.6265C111.804 16.6265 112.743 15.7427 112.743 14.0118V9.62942H115.174V18.6336H112.743V17.5656L112.706 17.5472C112.025 18.3758 111.068 18.7993 110.055 18.7993Z" fill="white"/>
<path d="M117.129 18.6336V9.62942H119.541V10.7895H119.578C120.296 9.94245 121.327 9.50052 122.451 9.50052C124.366 9.50052 125.71 10.5317 125.71 13.2937V18.6336H123.298V13.9013C123.298 12.1889 122.69 11.6549 121.567 11.6549C120.352 11.6549 119.541 12.5019 119.541 14.1223V18.6336H117.129Z" fill="white"/>
<path d="M131.379 18.7993C128.893 18.7993 127.07 16.9396 127.07 14.1591C127.07 11.4339 128.912 9.50052 131.324 9.50052C132.429 9.50052 133.386 9.90562 134.049 10.679H134.086V5.0813H136.48V18.6336H134.178V17.5288H134.16C133.534 18.339 132.594 18.7993 131.379 18.7993ZM131.821 16.6265C133.147 16.6265 134.178 15.6506 134.178 14.1775C134.178 12.7229 133.202 11.6549 131.821 11.6549C130.532 11.6549 129.519 12.6308 129.519 14.1775C129.519 15.6138 130.477 16.6265 131.821 16.6265Z" fill="white"/>
<path d="M142.285 18.7993C139.818 18.7993 137.995 16.9396 137.995 14.1591C137.995 11.4339 139.818 9.50052 142.23 9.50052C143.279 9.50052 144.237 9.90562 144.881 10.679L144.918 10.6606V9.62942H147.33V18.6336H145.029V17.5656L144.992 17.5472C144.366 18.3574 143.464 18.7993 142.285 18.7993ZM142.745 16.6265C143.979 16.6265 145.029 15.6506 145.029 14.1775C145.029 12.7229 144.034 11.6549 142.745 11.6549C141.438 11.6549 140.444 12.6308 140.444 14.1775C140.444 15.6138 141.383 16.6265 142.745 16.6265Z" fill="white"/>
<path d="M152.035 18.7993C150.489 18.7993 149.476 17.8234 149.476 15.7979V11.6365H148.408V9.62942H149.476V6.70168L151.888 6.44389V9.62942H154.319V11.6365H151.888V15.4481C151.888 16.2398 152.091 16.6081 152.661 16.6081C152.956 16.6081 153.398 16.4976 153.803 16.2951L154.411 18.2285C153.84 18.5415 153.251 18.7993 152.035 18.7993Z" fill="white"/>
<path d="M156.974 8.41413C156.09 8.41413 155.446 7.75125 155.446 6.92264C155.446 6.11245 156.09 5.44957 156.974 5.44957C157.839 5.44957 158.502 6.11245 158.502 6.92264C158.502 7.75125 157.839 8.41413 156.974 8.41413ZM155.74 18.6336V9.62942H158.152V18.6336H155.74Z" fill="white"/>
<path d="M164.587 18.7993C161.714 18.7993 159.799 16.8291 159.799 14.1407C159.799 11.4523 161.714 9.50052 164.587 9.50052C167.386 9.50052 169.356 11.3787 169.356 14.1407C169.356 16.8843 167.386 18.7993 164.587 18.7993ZM164.587 16.6265C165.876 16.6265 166.907 15.6138 166.907 14.1407C166.907 12.6676 165.913 11.6549 164.587 11.6549C163.187 11.6549 162.248 12.7229 162.248 14.1407C162.248 15.5401 163.206 16.6265 164.587 16.6265Z" fill="white"/>
<path d="M170.879 18.6336V9.62942H173.291V10.7895H173.328C174.046 9.94245 175.077 9.50052 176.201 9.50052C178.116 9.50052 179.46 10.5317 179.46 13.2937V18.6336H177.048V13.9013C177.048 12.1889 176.44 11.6549 175.317 11.6549C174.102 11.6549 173.291 12.5019 173.291 14.1223V18.6336H170.879Z" fill="white"/>
<defs>
<linearGradient id="paint0_linear_795_167" x1="183.41" y1="19.8753" x2="82.8572" y2="19.8753" gradientUnits="userSpaceOnUse">
<stop stop-color="#6939FF"/>
<stop offset="1" stop-color="#BC51FF"/>
</linearGradient>
</defs>
</svg>
