<svg width="64" height="64" viewBox="0 0 64 64" fill="none" xmlns="http://www.w3.org/2000/svg">
<path d="M39.9363 8.05042L42.4963 3.43175C42.529 3.37257 42.5498 3.30752 42.5574 3.24031C42.565 3.1731 42.5593 3.10505 42.5406 3.04005C42.5219 2.97505 42.4906 2.91437 42.4484 2.86147C42.4063 2.80857 42.3541 2.76449 42.2949 2.73175C42.2358 2.69901 42.1707 2.67824 42.1035 2.67064C42.0363 2.66304 41.9682 2.66875 41.9032 2.68744C41.8382 2.70614 41.7776 2.73745 41.7247 2.7796C41.6718 2.82175 41.6277 2.8739 41.5949 2.93308L39.0083 7.59975C36.8002 6.63146 34.4153 6.13152 32.0043 6.13152C29.5932 6.13152 27.2083 6.63146 25.0003 7.59975L22.4136 2.93308C22.3475 2.81285 22.2363 2.72381 22.1045 2.68556C21.9727 2.6473 21.8312 2.66296 21.7109 2.72908C21.5907 2.79521 21.5017 2.90639 21.4634 3.03817C21.4252 3.16994 21.4408 3.31152 21.5069 3.43175L24.0669 8.05042C21.6319 9.25268 19.5746 11.1017 18.1203 13.3951C16.666 15.6886 15.8708 18.3379 15.8216 21.0531L48.1869 21.0531C48.1373 18.3373 47.3412 15.6876 45.8859 13.3941C44.4306 11.1007 42.3723 9.25195 39.9363 8.05042ZM24.5363 15.1304C24.2688 15.1304 24.0073 15.0511 23.7849 14.9024C23.5625 14.7537 23.3892 14.5424 23.2869 14.2952C23.1847 14.048 23.1581 13.776 23.2104 13.5137C23.2628 13.2513 23.3919 13.0104 23.5812 12.8215C23.7706 12.6325 24.0117 12.5039 24.2741 12.4521C24.5366 12.4002 24.8085 12.4274 25.0555 12.5301C25.3025 12.6328 25.5135 12.8065 25.6617 13.0292C25.81 13.2519 25.8888 13.5136 25.8883 13.7811C25.8876 14.1392 25.7448 14.4824 25.4913 14.7354C25.2379 14.9883 24.8944 15.1304 24.5363 15.1304ZM39.4749 15.1304C39.2074 15.1304 38.9459 15.0511 38.7235 14.9024C38.5011 14.7537 38.3279 14.5424 38.2256 14.2952C38.1233 14.048 38.0967 13.776 38.1491 13.5137C38.2015 13.2513 38.3305 13.0104 38.5199 12.8215C38.7092 12.6325 38.9504 12.5039 39.2128 12.4521C39.4753 12.4002 39.7472 12.4274 39.9942 12.5301C40.2412 12.6328 40.4521 12.8065 40.6004 13.0292C40.7486 13.2519 40.8275 13.5136 40.8269 13.7811C40.8262 14.1392 40.6835 14.4824 40.43 14.7354C40.1765 14.9883 39.833 15.1304 39.4749 15.1304ZM15.8163 45.7891C15.8156 46.3039 15.9165 46.8139 16.1133 47.2896C16.3101 47.7654 16.5988 48.1976 16.963 48.5616C17.3272 48.9255 17.7596 49.214 18.2355 49.4104C18.7114 49.6069 19.2214 49.7075 19.7363 49.7064H22.3309L22.3309 57.7064C22.3309 58.6686 22.7132 59.5914 23.3936 60.2718C24.0739 60.9522 24.9967 61.3344 25.9589 61.3344C26.9211 61.3344 27.8439 60.9522 28.5243 60.2718C29.2047 59.5914 29.5869 58.6686 29.5869 57.7064V49.7064H34.4243V57.7064C34.4243 58.6683 34.8064 59.5907 35.4865 60.2709C36.1666 60.951 37.0891 61.3331 38.0509 61.3331C39.0128 61.3331 39.9352 60.951 40.6154 60.2709C41.2955 59.5907 41.6776 58.6683 41.6776 57.7064V49.7064H44.2749C44.7891 49.7068 45.2983 49.6057 45.7734 49.4091C46.2485 49.2125 46.6802 48.9242 47.0438 48.5606C47.4074 48.197 47.6957 47.7653 47.8923 47.2902C48.0889 46.8151 48.19 46.3059 48.1896 45.7918L48.1896 22.3331L15.8163 22.3331L15.8163 45.7891ZM10.8376 21.7091C10.3611 21.7091 9.88931 21.803 9.44912 21.9854C9.00894 22.1678 8.60902 22.4352 8.27222 22.7722C7.93542 23.1093 7.66834 23.5094 7.48624 23.9497C7.30414 24.39 7.21059 24.8619 7.21094 25.3384L7.21094 40.4557C7.21094 40.932 7.30474 41.4036 7.487 41.8436C7.66926 42.2836 7.9364 42.6834 8.27316 43.0202C8.60993 43.357 9.00973 43.6241 9.44974 43.8064C9.88975 43.9886 10.3613 44.0824 10.8376 44.0824C11.3139 44.0824 11.7855 43.9886 12.2255 43.8064C12.6655 43.6241 13.0653 43.357 13.402 43.0202C13.7388 42.6834 14.006 42.2836 14.1882 41.8436C14.3705 41.4036 14.4643 40.932 14.4643 40.4557L14.4643 25.3384C14.4643 24.8622 14.3705 24.3906 14.1882 23.9505C14.006 23.5105 13.7388 23.1107 13.402 22.774C13.0653 22.4372 12.6655 22.1701 12.2255 21.9878C11.7855 21.8056 11.3139 21.7117 10.8376 21.7117M53.1629 21.7117C52.6865 21.7117 52.2146 21.8056 51.7745 21.9881C51.3343 22.1705 50.9344 22.4379 50.5976 22.7749C50.2608 23.112 49.9937 23.5121 49.8116 23.9524C49.6295 24.3927 49.5359 24.8646 49.5363 25.3411V40.4584C49.5363 40.9347 49.6301 41.4063 49.8123 41.8463C49.9946 42.2863 50.2617 42.6861 50.5985 43.0229C50.9353 43.3596 51.3351 43.6268 51.7751 43.809C52.2151 43.9913 52.6867 44.0851 53.1629 44.0851C53.6392 44.0851 54.1108 43.9913 54.5508 43.809C54.9908 43.6268 55.3906 43.3596 55.7274 43.0229C56.0642 42.6861 56.3313 42.2863 56.5135 41.8463C56.6958 41.4063 56.7896 40.9347 56.7896 40.4584V25.3384C56.7896 24.3766 56.4075 23.4541 55.7274 22.774C55.0473 22.0938 54.1248 21.7117 53.1629 21.7117Z" fill="url(#paint0_linear_2853_17662)"/>
<defs>
<linearGradient id="paint0_linear_2853_17662" x1="55.7982" y1="3.79595" x2="1.54804" y2="54.3322" gradientUnits="userSpaceOnUse">
<stop stop-color="#E0E0E0"/>
<stop offset="1" stop-color="#737477"/>
</linearGradient>
</defs>
</svg>
