<svg width="100" height="28" viewBox="0 0 100 28" fill="none" xmlns="http://www.w3.org/2000/svg">
<g clip-path="url(#clip0_2808_8993)">
<path fill-rule="evenodd" clip-rule="evenodd" d="M46.9114 10.6V27.0502H51.3885V10.6085C50.0561 11.5979 49.1869 13.1827 49.1644 14.9723L49.156 15.6423L49.1468 14.9665C49.1224 13.174 48.2488 11.5877 46.9114 10.6ZM4.98882 5.61377L0.511719 6.79248V27.0502H4.98882V22.8283C5.07025 23.1339 5.16352 23.4224 5.26864 23.6936C5.75366 24.8971 6.45321 25.8185 7.36728 26.4578C8.30001 27.0784 9.45664 27.3886 10.837 27.3886C12.2362 27.3886 13.4114 27.0784 14.3628 26.4578C15.3141 25.8373 16.0324 24.8783 16.5174 23.5808C17.021 22.2834 17.2728 20.6287 17.2728 18.6166C17.2728 16.6422 17.021 15.0345 16.5174 13.7934C16.0324 12.5523 15.3235 11.6498 14.3907 11.0857C13.458 10.5027 12.3201 10.2113 10.9769 10.2113C9.52192 10.2113 8.31867 10.5498 7.36728 11.2267C6.43455 11.8848 5.735 12.8533 5.26864 14.1319C5.16352 14.4201 5.07025 14.7269 4.98882 15.0525V5.61377ZM4.98882 18.7859C4.98882 20.0833 5.12874 21.1457 5.40855 21.9731C5.70702 22.7817 6.15474 23.3834 6.75168 23.7783C7.36728 24.1732 8.11347 24.3706 8.99024 24.3706C10.2588 24.3706 11.2008 23.9381 11.8164 23.0732C12.432 22.1894 12.7398 20.7603 12.7398 18.7859C12.7398 16.8303 12.432 15.42 11.8164 14.555C11.2194 13.69 10.2774 13.2576 8.99024 13.2576C8.09481 13.2576 7.34863 13.455 6.75168 13.8499C6.15474 14.2259 5.70702 14.8183 5.40855 15.6268C5.12874 16.4354 4.98882 17.4884 4.98882 18.7859ZM22.9277 10.5498L19.0661 11.5652V27.0502H23.5432V20.0551C23.5432 18.5696 23.6925 17.4131 23.9909 16.5858C24.2894 15.7397 24.7091 15.1473 25.2502 14.8089C25.7911 14.4703 26.472 14.3011 27.2928 14.3011H28.664V10.5498H27.9084C26.9197 10.5498 26.0616 10.8882 25.3341 11.5652C24.6252 12.2421 24.0749 13.2858 23.6831 14.696C23.4829 15.4528 23.3365 16.3177 23.2437 17.291H23.1794L22.9277 10.5498ZM33.6805 27.304C32.6172 27.304 31.7218 27.1347 30.9943 26.7963C30.2854 26.439 29.7444 25.9502 29.3714 25.3296C29.0169 24.6903 28.8397 23.9475 28.8397 23.1013C28.8397 22.2176 29.0822 21.456 29.5672 20.8166C30.0522 20.1773 30.8544 19.585 31.9737 19.0397C33.1116 18.4944 34.6972 17.9209 36.7305 17.3192L40.1443 16.3042V16.2755C40.1443 15.4858 40.0325 14.8558 39.8086 14.3858C39.6034 13.9157 39.2676 13.5772 38.8013 13.3703C38.3535 13.1635 37.7473 13.0601 36.9824 13.0601C35.7885 13.0601 34.9024 13.3892 34.3241 14.0473C33.7645 14.6866 33.4101 15.7679 33.2608 17.291H29.2034C29.3341 15.6738 29.6978 14.3482 30.2947 13.3139C30.8916 12.261 31.7591 11.4806 32.897 10.9729C34.035 10.4464 35.4993 10.1831 37.2903 10.1831C39.0251 10.1831 40.4335 10.4088 41.5154 10.86C42.5975 11.3113 43.3809 11.9789 43.866 12.8627C44.3696 13.7276 44.6215 14.8089 44.6215 16.1063V22.086L44.8453 27.0502H40.5921V20.1962H40.4802C40.3496 21.6817 40.0417 22.9509 39.5567 24.0039C39.0903 25.0381 38.3722 25.8467 37.4021 26.4296C36.4507 27.0126 35.2103 27.304 33.6805 27.304ZM37.1223 19.8859L40.1443 18.9355V19.491C40.1443 20.3936 39.9578 21.221 39.5847 21.9731C39.2303 22.7253 38.7079 23.327 38.0178 23.7783C37.3275 24.2296 36.5253 24.4552 35.6113 24.4552C34.8465 24.4552 34.2775 24.3142 33.9044 24.0322C33.5313 23.7313 33.3448 23.3082 33.3448 22.7628C33.3448 22.2928 33.4474 21.9073 33.6526 21.6064C33.8765 21.2868 34.2495 21.0047 34.7718 20.7603C35.3128 20.497 36.0964 20.2056 37.1223 19.8859ZM53.6609 11.55L57.5225 10.5498L57.7729 17.256C57.9183 15.9593 58.1706 14.8615 58.5298 13.9627C59.0708 12.6088 59.8263 11.6498 60.7963 11.0857C61.7664 10.5027 62.9603 10.2113 64.378 10.2113C66.2435 10.2113 67.6332 10.672 68.5473 11.5933C69.4801 12.5147 69.9464 13.8499 69.9464 15.5987V27.0502H65.4693V16.3038C65.4693 15.6268 65.3667 15.0815 65.1615 14.6678C64.9563 14.2541 64.6298 13.9533 64.1821 13.7652C63.753 13.5584 63.1748 13.455 62.4473 13.455C61.5332 13.455 60.7683 13.643 60.1528 14.0191C59.5558 14.3764 59.0801 14.9875 58.7256 15.8524C58.3899 16.7174 58.194 17.8927 58.138 19.3782V27.0502H53.6609V11.55ZM75.212 26.4014C76.4805 27.0408 78.1221 27.3604 80.1368 27.3604C81.7039 27.3604 83.0377 27.1536 84.1382 26.7399C85.2576 26.3262 86.1436 25.6587 86.7966 24.7373C87.4665 23.8182 87.8857 22.6184 88.0544 21.1381L83.6385 22.301C83.558 22.5204 83.4634 22.7214 83.3548 22.9039C83.075 23.3552 82.6739 23.6936 82.1516 23.9193C81.6292 24.1261 80.9577 24.2296 80.1368 24.2296C79.1295 24.2296 78.3087 24.0698 77.6744 23.7501C77.0589 23.4116 76.6018 22.8757 76.3033 22.1423C76.0508 21.5061 75.9052 20.6881 75.8663 19.6884H88.1397V17.9396C88.1397 16.3225 87.8599 14.9405 87.3003 13.7934C86.7405 12.6464 85.8638 11.7627 84.6699 11.1421C83.476 10.5216 81.9464 10.2113 80.0809 10.2113C77.2267 10.2113 75.1001 10.9447 73.701 12.4113C72.3019 13.8781 71.6024 16.0593 71.6024 18.9551C71.6024 20.8166 71.8916 22.368 72.4698 23.6091C73.0481 24.8313 73.9622 25.7621 75.212 26.4014ZM75.9471 16.7551C76.0941 15.801 76.418 15.0583 76.919 14.5268C77.6278 13.7558 78.6631 13.3703 80.0249 13.3703C80.939 13.3703 81.6665 13.549 82.2075 13.9062C82.7671 14.2448 83.1776 14.7713 83.4387 15.4858C83.5739 15.8459 83.674 16.269 83.7393 16.7551H75.9471ZM89.8953 11.5652L93.7564 10.5498L94.0082 17.291H94.073C94.1656 16.3177 94.3119 15.4528 94.5119 14.696C94.9045 13.2858 95.4545 12.2421 96.1628 11.5652C96.8906 10.8882 97.749 10.5498 98.7378 10.5498H99.4934V14.3011H98.1221C97.3008 14.3011 96.6203 14.4703 96.0795 14.8089C95.5388 15.1473 95.1184 15.7397 94.8203 16.5858C94.5221 17.4131 94.3721 18.5696 94.3721 20.0551V27.0502H89.8953V11.5652Z" fill="#F1F5F9"/>
<path d="M49.1531 0.611328L49.1616 1.29562C49.1986 4.30835 51.632 6.73105 54.6211 6.73105H55.2243L54.4921 6.74848C51.5546 6.81845 49.1989 9.21917 49.1616 12.1808L49.1531 12.8507L49.144 12.1749C49.1036 9.21571 46.7489 6.81847 43.8137 6.74849L43.082 6.73105H43.6845C46.6714 6.73105 49.1039 4.31178 49.144 1.3013L49.1531 0.611328Z" fill="#F1F5F9"/>
</g>
<defs>
<clipPath id="clip0_2808_8993">
<rect width="100" height="28" fill="white"/>
</clipPath>
</defs>
</svg>
