<svg width="122" height="35" viewBox="0 0 122 35" fill="none" xmlns="http://www.w3.org/2000/svg">
<g clip-path="url(#clip0_2808_9014)">
<path fill-rule="evenodd" clip-rule="evenodd" d="M18.04 34.4156C8.5756 34.4156 0.832031 26.672 0.832031 17.1216C0.918071 7.65726 8.5756 -0.086306 18.126 -0.000266428C27.5903 0.0857732 35.2479 7.7433 35.2479 17.3797C35.1618 26.7581 27.5043 34.4156 18.04 34.4156Z" fill="#0090FF"/>
<path fill-rule="evenodd" clip-rule="evenodd" d="M19.6758 15.1429L19.1596 17.8962L24.0638 18.5845L23.7197 19.8751L18.9014 19.1868C18.5573 20.3053 18.3852 21.5099 17.955 22.5423C17.5248 23.7469 17.0946 24.9514 16.5784 26.07C15.8901 27.5326 14.6855 28.5651 13.0508 28.8232C12.1043 28.9953 11.0718 28.9093 10.2975 28.307C10.0394 28.1349 9.78125 27.7908 9.78125 27.5326C9.78125 27.1885 9.95333 26.7583 10.2114 26.5862C10.3835 26.5002 10.8137 26.5862 11.0718 26.6722C11.33 26.9304 11.5881 27.2745 11.7602 27.6187C12.2764 28.307 12.9647 28.393 13.653 27.8768C14.4274 27.1885 14.8576 26.242 15.1157 25.2956C15.6319 23.2307 16.1482 21.2517 16.5784 19.1868V18.8426L12.0183 18.1543L12.1904 16.8637L16.9225 17.552L17.5248 14.8848L12.6206 14.1105L12.7926 12.7338L17.869 13.4221C18.0411 12.9059 18.1271 12.4757 18.2992 12.0455C18.7294 10.4968 19.1596 8.94808 20.192 7.57145C21.2245 6.19481 22.4291 5.33442 24.2359 5.42046C25.0103 5.42046 25.7846 5.67858 26.3009 6.28085C26.3869 6.36689 26.559 6.53897 26.559 6.71105C26.559 7.05521 26.559 7.48541 26.3009 7.74353C25.9567 8.00165 25.5265 7.91561 25.1823 7.57145C24.9242 7.31333 24.7521 7.05521 24.494 6.79709C23.9778 6.10877 23.2034 6.02274 22.6011 6.62501C22.171 7.05521 21.7408 7.65749 21.4826 8.25977C20.8804 10.0666 20.4502 11.9595 19.8479 13.8523L24.5801 14.5407L24.2359 15.8312L19.6758 15.1429Z" fill="white"/>
</g>
<path d="M122.001 26.0586H118.958V20.1901C118.958 18.9485 118.893 18.1472 118.763 17.7863C118.633 17.4182 118.42 17.133 118.124 16.9309C117.836 16.7288 117.486 16.6278 117.074 16.6278C116.547 16.6278 116.074 16.7721 115.656 17.0609C115.237 17.3496 114.948 17.7322 114.789 18.2086C114.638 18.685 114.562 19.5657 114.562 20.8505V26.0586H111.52V14.5597H114.346V16.2488C115.349 14.9495 116.612 14.2998 118.135 14.2998C118.807 14.2998 119.42 14.4225 119.976 14.6679C120.532 14.9062 120.95 15.2129 121.232 15.5883C121.521 15.9637 121.719 16.3895 121.827 16.866C121.943 17.3424 122.001 18.0245 122.001 18.9124V26.0586Z" fill="white"/>
<path d="M105.367 13.0007V10.1855H108.41V13.0007H105.367ZM105.367 26.0589V14.5599H108.41V26.0589H105.367Z" fill="white"/>
<path d="M91.1094 20.1467C91.1094 19.1362 91.3584 18.1581 91.8565 17.2124C92.3546 16.2668 93.0584 15.545 93.9679 15.0469C94.8846 14.5488 95.906 14.2998 97.0321 14.2998C98.7717 14.2998 100.197 14.8665 101.309 15.9997C102.421 17.1258 102.976 18.5515 102.976 20.2767C102.976 22.0163 102.413 23.46 101.287 24.6077C100.169 25.7483 98.7573 26.3185 97.0538 26.3185C95.9999 26.3185 94.9929 26.0803 94.0328 25.6039C93.08 25.1275 92.3546 24.4309 91.8565 23.5141C91.3584 22.5902 91.1094 21.4677 91.1094 20.1467ZM94.2277 20.3092C94.2277 21.4497 94.4984 22.3231 95.0398 22.9294C95.5812 23.5358 96.2489 23.839 97.0429 23.839C97.837 23.839 98.5011 23.5358 99.0352 22.9294C99.5766 22.3231 99.8473 21.4425 99.8473 20.2875C99.8473 19.1614 99.5766 18.2952 99.0352 17.6889C98.5011 17.0825 97.837 16.7793 97.0429 16.7793C96.2489 16.7793 95.5812 17.0825 95.0398 17.6889C94.4984 18.2952 94.2277 19.1686 94.2277 20.3092Z" fill="white"/>
<path d="M89.4946 17.96L86.4953 18.5014C86.3943 17.9023 86.1633 17.4511 85.8024 17.148C85.4487 16.8448 84.9867 16.6932 84.4164 16.6932C83.6585 16.6932 83.0521 16.9567 82.5974 17.4836C82.1498 18.0034 81.9261 18.8768 81.9261 20.1039C81.9261 21.4682 82.1534 22.4319 82.6082 22.9949C83.0702 23.5579 83.6874 23.8395 84.4597 23.8395C85.0372 23.8395 85.51 23.677 85.8782 23.3522C86.2463 23.0202 86.5062 22.4535 86.6578 21.6523L89.6462 22.1612C89.3358 23.5327 88.7403 24.5685 87.8596 25.2687C86.979 25.9689 85.7988 26.319 84.319 26.319C82.6371 26.319 81.2945 25.7884 80.2911 24.7273C79.2949 23.6662 78.7969 22.1973 78.7969 20.3205C78.7969 18.422 79.2986 16.9459 80.3019 15.892C81.3053 14.8308 82.6623 14.3003 84.3731 14.3003C85.7735 14.3003 86.8851 14.6035 87.708 15.2098C88.5382 15.8089 89.1337 16.7257 89.4946 17.96Z" fill="white"/>
<path d="M73.7852 22.3989L76.8169 22.9078C76.4271 24.0194 75.8099 24.8676 74.9654 25.4523C74.128 26.0298 73.0778 26.3185 71.8145 26.3185C69.815 26.3185 68.3352 25.6652 67.3752 24.3587C66.6172 23.312 66.2383 21.9911 66.2383 20.3958C66.2383 18.4901 66.7364 16.9995 67.7325 15.924C68.7286 14.8412 69.9883 14.2998 71.5114 14.2998C73.2221 14.2998 74.572 14.8665 75.5609 15.9997C76.5498 17.1258 77.0226 18.8546 76.9793 21.1862H69.3566C69.3783 22.0885 69.6237 22.7923 70.0929 23.2976C70.5621 23.7957 71.1468 24.0447 71.847 24.0447C72.3234 24.0447 72.724 23.9148 73.0489 23.6549C73.3737 23.395 73.6191 22.9764 73.7852 22.3989ZM73.9584 19.3238C73.9367 18.4432 73.7094 17.7755 73.2763 17.3207C72.8432 16.8587 72.3162 16.6278 71.6954 16.6278C71.0313 16.6278 70.4827 16.8696 70.0496 17.3532C69.6165 17.8368 69.4036 18.4937 69.4108 19.3238H73.9584Z" fill="white"/>
<path d="M60.9531 26.0589V10.1855H63.9957V26.0589H60.9531Z" fill="white"/>
<path d="M54.7812 13.0007V10.1855H57.8238V13.0007H54.7812ZM54.7812 26.0589V14.5599H57.8238V26.0589H54.7812Z" fill="white"/>
<path d="M41.2695 26.0589V10.1855H52.1513V12.8708H44.4745V16.628H51.101V19.3133H44.4745V26.0589H41.2695Z" fill="white"/>
<defs>
<clipPath id="clip0_2808_9014">
<rect width="34.4158" height="34.4158" fill="white" transform="translate(0.832031)"/>
</clipPath>
</defs>
</svg>
