<svg width="183" height="48" viewBox="0 0 183 48" fill="none" xmlns="http://www.w3.org/2000/svg">
<path d="M39.6645 20.1185H12.2221C13.6367 17.2477 16.5708 15.2751 19.9616 15.2751C21.8233 15.2751 23.5469 15.8707 24.958 16.8832H29.4872C27.3271 13.941 23.8643 12.0351 19.9616 12.0351C15.1719 12.0351 11.047 14.904 9.17881 19.0325C8.87397 19.7062 8.35285 20.2701 7.66672 20.532L0.272278 23.3549H15.8955C17.2556 23.3549 18.3582 24.4682 18.3582 25.8414V32.5735C15.1987 31.9755 12.6457 29.6432 11.7065 26.5914H8.39015C9.56286 31.9529 14.2974 35.9649 19.9604 35.9649C26.0118 35.9649 30.989 31.6758 31.7043 25.0257C31.8124 24.0204 32.399 23.1056 33.3266 22.7243L39.6645 20.1185ZM21.5637 32.5723V25.8402C21.5637 24.467 22.6663 23.3537 24.0264 23.3537H28.5764C28.5919 23.5669 28.6024 23.7814 28.6024 23.9993C28.6024 28.265 25.5703 31.8135 21.5637 32.5723Z" fill="url(#paint0_linear_1205_2141)"/>
<path d="M176.248 25.1748V30.987H173.46V20.9335H176.117V22.7073H176.235C176.458 22.1226 176.831 21.66 177.354 21.3197C177.878 20.975 178.513 20.8026 179.259 20.8026C179.957 20.8026 180.566 20.9553 181.085 21.2608C181.604 21.5662 182.008 22.0026 182.296 22.5698C182.584 23.1327 182.728 23.8047 182.728 24.5858V30.987H179.94V25.0832C179.944 24.4679 179.787 23.988 179.468 23.6432C179.15 23.2942 178.711 23.1196 178.153 23.1196C177.778 23.1196 177.446 23.2003 177.158 23.3618C176.874 23.5232 176.652 23.7589 176.49 24.0687C176.333 24.3741 176.252 24.7428 176.248 25.1748Z" fill="url(#paint1_linear_1205_2141)"/>
<path d="M167.067 31.1833C166.051 31.1833 165.171 30.9673 164.429 30.5354C163.692 30.099 163.123 29.4925 162.721 28.7158C162.32 27.9347 162.119 27.0293 162.119 25.9995C162.119 24.961 162.32 24.0534 162.721 23.2767C163.123 22.4956 163.692 21.8891 164.429 21.4571C165.171 21.0208 166.051 20.8026 167.067 20.8026C168.084 20.8026 168.961 21.0208 169.698 21.4571C170.44 21.8891 171.012 22.4956 171.413 23.2767C171.815 24.0534 172.015 24.961 172.015 25.9995C172.015 27.0293 171.815 27.9347 171.413 28.7158C171.012 29.4925 170.44 30.099 169.698 30.5354C168.961 30.9673 168.084 31.1833 167.067 31.1833ZM167.08 29.0234C167.543 29.0234 167.929 28.8925 168.239 28.6307C168.549 28.3645 168.782 28.0024 168.939 27.5442C169.101 27.086 169.181 26.5646 169.181 25.9799C169.181 25.3952 169.101 24.8737 168.939 24.4156C168.782 23.9574 168.549 23.5952 168.239 23.3291C167.929 23.0629 167.543 22.9298 167.08 22.9298C166.613 22.9298 166.221 23.0629 165.902 23.3291C165.588 23.5952 165.35 23.9574 165.189 24.4156C165.032 24.8737 164.953 25.3952 164.953 25.9799C164.953 26.5646 165.032 27.086 165.189 27.5442C165.35 28.0024 165.588 28.3645 165.902 28.6307C166.221 28.8925 166.613 29.0234 167.08 29.0234Z" fill="url(#paint2_linear_1205_2141)"/>
<path d="M157.872 30.987V20.9335H160.66V30.987H157.872ZM159.272 19.6376C158.858 19.6376 158.502 19.5001 158.205 19.2252C157.913 18.946 157.767 18.6122 157.767 18.2238C157.767 17.8398 157.913 17.5104 158.205 17.2355C158.502 16.9562 158.858 16.8166 159.272 16.8166C159.687 16.8166 160.04 16.9562 160.333 17.2355C160.629 17.5104 160.778 17.8398 160.778 18.2238C160.778 18.6122 160.629 18.946 160.333 19.2252C160.04 19.5001 159.687 19.6376 159.272 19.6376Z" fill="url(#paint3_linear_1205_2141)"/>
<path d="M156.424 20.9335V23.028H150.37V20.9335H156.424ZM151.744 18.5249H154.532V27.8977C154.532 28.1551 154.572 28.3558 154.65 28.4998C154.729 28.6395 154.838 28.7376 154.977 28.7944C155.121 28.8511 155.287 28.8794 155.475 28.8794C155.606 28.8794 155.737 28.8685 155.868 28.8467C155.999 28.8205 156.099 28.8009 156.169 28.7878L156.607 30.8626C156.468 30.9063 156.271 30.9565 156.018 31.0132C155.765 31.0743 155.457 31.1114 155.095 31.1245C154.423 31.1506 153.834 31.0612 153.328 30.8561C152.826 30.651 152.436 30.3325 152.156 29.9005C151.877 29.4685 151.74 28.9231 151.744 28.2642V18.5249Z" fill="url(#paint4_linear_1205_2141)"/>
<path d="M143.62 31.1768C142.979 31.1768 142.407 31.0655 141.905 30.843C141.404 30.6161 141.007 30.2823 140.714 29.8416C140.426 29.3965 140.282 28.8423 140.282 28.1791C140.282 27.6206 140.385 27.1515 140.59 26.7719C140.795 26.3922 141.074 26.0868 141.428 25.8555C141.781 25.6243 142.183 25.4497 142.632 25.3319C143.086 25.2141 143.561 25.1312 144.059 25.0832C144.644 25.0221 145.115 24.9654 145.473 24.913C145.83 24.8563 146.09 24.7734 146.251 24.6643C146.413 24.5552 146.494 24.3938 146.494 24.1799V24.1407C146.494 23.7261 146.363 23.4054 146.101 23.1785C145.843 22.9516 145.477 22.8382 145.001 22.8382C144.5 22.8382 144.1 22.9494 143.804 23.172C143.507 23.3902 143.31 23.6651 143.214 23.9967L140.636 23.7872C140.767 23.1763 141.024 22.6484 141.408 22.2033C141.792 21.7539 142.287 21.4091 142.894 21.1691C143.505 20.9248 144.212 20.8026 145.014 20.8026C145.573 20.8026 146.107 20.8681 146.618 20.999C147.133 21.1299 147.589 21.3328 147.986 21.6077C148.387 21.8826 148.704 22.236 148.935 22.668C149.166 23.0956 149.282 23.6083 149.282 24.2061V30.987H146.638V29.5928H146.559C146.398 29.907 146.182 30.1841 145.911 30.4241C145.641 30.6597 145.315 30.8452 144.936 30.9804C144.556 31.1113 144.118 31.1768 143.62 31.1768ZM144.419 29.2525C144.829 29.2525 145.191 29.1718 145.505 29.0103C145.819 28.8445 146.066 28.622 146.245 28.3427C146.424 28.0634 146.513 27.7471 146.513 27.3937V26.3268C146.426 26.3835 146.306 26.4359 146.153 26.4839C146.005 26.5275 145.837 26.569 145.649 26.6082C145.462 26.6431 145.274 26.6759 145.086 26.7064C144.899 26.7326 144.729 26.7566 144.576 26.7784C144.249 26.8264 143.963 26.9028 143.718 27.0075C143.474 27.1122 143.284 27.254 143.149 27.4329C143.014 27.6075 142.946 27.8256 142.946 28.0874C142.946 28.4671 143.084 28.7572 143.358 28.958C143.638 29.1543 143.991 29.2525 144.419 29.2525Z" fill="url(#paint5_linear_1205_2141)"/>
<path d="M133.109 31.1506C132.346 31.1506 131.654 30.9543 131.034 30.5616C130.419 30.1645 129.93 29.582 129.568 28.814C129.21 28.0417 129.031 27.0948 129.031 25.9734C129.031 24.8214 129.217 23.8636 129.588 23.1C129.959 22.332 130.452 21.7583 131.067 21.3786C131.687 20.9946 132.365 20.8026 133.103 20.8026C133.666 20.8026 134.135 20.8986 134.51 21.0906C134.889 21.2783 135.195 21.5139 135.426 21.7975C135.662 22.0768 135.841 22.3517 135.963 22.6222H136.048V17.5824H138.83V30.987H136.081V29.3769H135.963C135.832 29.6562 135.647 29.9332 135.407 30.2081C135.171 30.4787 134.863 30.7034 134.484 30.8823C134.108 31.0612 133.65 31.1506 133.109 31.1506ZM133.993 28.9318C134.442 28.9318 134.822 28.8096 135.132 28.5653C135.446 28.3166 135.686 27.9697 135.852 27.5246C136.022 27.0795 136.107 26.5581 136.107 25.9603C136.107 25.3625 136.024 24.8432 135.858 24.4025C135.692 23.9618 135.452 23.6215 135.138 23.3815C134.824 23.1415 134.442 23.0215 133.993 23.0215C133.535 23.0215 133.148 23.1458 132.834 23.3946C132.52 23.6433 132.282 23.988 132.121 24.4287C131.959 24.8694 131.879 25.3799 131.879 25.9603C131.879 26.545 131.959 27.0621 132.121 27.5115C132.287 27.9566 132.524 28.3057 132.834 28.5587C133.148 28.8075 133.535 28.9318 133.993 28.9318Z" fill="url(#paint6_linear_1205_2141)"/>
<path d="M121.096 25.1748V30.987H118.308V20.9335H120.965V22.7073H121.083C121.305 22.1226 121.678 21.66 122.202 21.3197C122.726 20.975 123.361 20.8026 124.107 20.8026C124.805 20.8026 125.414 20.9553 125.933 21.2608C126.452 21.5662 126.856 22.0026 127.144 22.5698C127.432 23.1327 127.576 23.8047 127.576 24.5858V30.987H124.787V25.0832C124.792 24.4679 124.635 23.988 124.316 23.6432C123.998 23.2942 123.559 23.1196 123.001 23.1196C122.625 23.1196 122.294 23.2003 122.006 23.3618C121.722 23.5232 121.5 23.7589 121.338 24.0687C121.181 24.3741 121.1 24.7428 121.096 25.1748Z" fill="url(#paint7_linear_1205_2141)"/>
<path d="M113.658 26.7064V20.9335H116.446V30.987H113.769V29.1609H113.664C113.437 29.7499 113.06 30.2234 112.532 30.5812C112.008 30.939 111.369 31.1179 110.614 31.1179C109.942 31.1179 109.351 30.9652 108.84 30.6597C108.33 30.3543 107.931 29.9201 107.643 29.3572C107.359 28.7943 107.215 28.1202 107.211 27.3348V20.9335H109.999V26.8373C110.003 27.4308 110.163 27.8998 110.477 28.2445C110.791 28.5893 111.212 28.7616 111.74 28.7616C112.076 28.7616 112.39 28.6853 112.682 28.5325C112.975 28.3755 113.21 28.1442 113.389 27.8387C113.573 27.5333 113.662 27.1559 113.658 26.7064Z" fill="url(#paint8_linear_1205_2141)"/>
<path d="M100.818 31.1833C99.8014 31.1833 98.9221 30.9673 98.1803 30.5354C97.4429 30.099 96.8735 29.4925 96.472 28.7158C96.0706 27.9347 95.8699 27.0293 95.8699 25.9995C95.8699 24.961 96.0706 24.0534 96.472 23.2767C96.8735 22.4956 97.4429 21.8891 98.1803 21.4571C98.9221 21.0208 99.8014 20.8026 100.818 20.8026C101.835 20.8026 102.712 21.0208 103.449 21.4571C104.191 21.8891 104.763 22.4956 105.164 23.2767C105.566 24.0534 105.766 24.961 105.766 25.9995C105.766 27.0293 105.566 27.9347 105.164 28.7158C104.763 29.4925 104.191 30.099 103.449 30.5354C102.712 30.9673 101.835 31.1833 100.818 31.1833ZM100.831 29.0234C101.294 29.0234 101.68 28.8925 101.99 28.6307C102.299 28.3645 102.533 28.0024 102.69 27.5442C102.851 27.086 102.932 26.5646 102.932 25.9799C102.932 25.3952 102.851 24.8737 102.69 24.4156C102.533 23.9574 102.299 23.5952 101.99 23.3291C101.68 23.0629 101.294 22.9298 100.831 22.9298C100.364 22.9298 99.9715 23.0629 99.653 23.3291C99.3388 23.5952 99.101 23.9574 98.9396 24.4156C98.7825 24.8737 98.704 25.3952 98.704 25.9799C98.704 26.5646 98.7825 27.086 98.9396 27.5442C99.101 28.0024 99.3388 28.3645 99.653 28.6307C99.9715 28.8925 100.364 29.0234 100.831 29.0234Z" fill="url(#paint9_linear_1205_2141)"/>
<path d="M86.653 30.987V17.5824H95.5283V19.919H89.4871V23.1131H94.9393V25.4498H89.4871V30.987H86.653Z" fill="url(#paint10_linear_1205_2141)"/>
<path d="M76.6381 31.1833C75.604 31.1833 74.7138 30.9739 73.9676 30.555C73.2259 30.1317 72.6542 29.5339 72.2528 28.7616C71.8514 27.9849 71.6506 27.0664 71.6506 26.0061C71.6506 24.9719 71.8514 24.0643 72.2528 23.2833C72.6542 22.5022 73.2193 21.8935 73.948 21.4571C74.6811 21.0208 75.5407 20.8026 76.5268 20.8026C77.1901 20.8026 77.8075 20.9095 78.3791 21.1233C78.9551 21.3328 79.4569 21.6491 79.8845 22.0724C80.3165 22.4956 80.6525 23.028 80.8925 23.6694C81.1325 24.3065 81.2525 25.0526 81.2525 25.9079V26.6737H72.7633V24.9457H78.6278C78.6278 24.5443 78.5406 24.1887 78.366 23.8789C78.1915 23.5691 77.9493 23.3269 77.6395 23.1523C77.3341 22.9734 76.9784 22.884 76.5726 22.884C76.1494 22.884 75.7741 22.9822 75.4469 23.1785C75.124 23.3705 74.8709 23.6301 74.6876 23.9574C74.5044 24.2803 74.4105 24.6403 74.4062 25.0374V26.6802C74.4062 27.1777 74.4978 27.6075 74.6811 27.9696C74.8687 28.3318 75.1327 28.6111 75.473 28.8074C75.8134 29.0038 76.217 29.102 76.6839 29.102C76.9937 29.102 77.2773 29.0583 77.5348 28.9711C77.7922 28.8838 78.0126 28.7529 78.1959 28.5783C78.3791 28.4038 78.5188 28.19 78.6148 27.9369L81.1936 28.1071C81.0627 28.7267 80.7943 29.2678 80.3885 29.7303C79.9871 30.1885 79.4678 30.5463 78.8307 30.8037C78.198 31.0568 77.4672 31.1833 76.6381 31.1833Z" fill="url(#paint11_linear_1205_2141)"/>
<path d="M67.4065 26.7064V20.9335H70.1948V30.987H67.5178V29.1609H67.4131C67.1862 29.7499 66.8087 30.2234 66.2807 30.5812C65.7571 30.939 65.1179 31.1179 64.363 31.1179C63.691 31.1179 63.0998 30.9652 62.5892 30.6597C62.0787 30.3543 61.6794 29.9201 61.3915 29.3572C61.1078 28.7943 60.9638 28.1202 60.9595 27.3348V20.9335H63.7477V26.8373C63.7521 27.4308 63.9114 27.8998 64.2255 28.2445C64.5397 28.5893 64.9608 28.7616 65.4888 28.7616C65.8248 28.7616 66.1389 28.6853 66.4313 28.5325C66.7236 28.3755 66.9593 28.1442 67.1382 27.8387C67.3214 27.5333 67.4109 27.1559 67.4065 26.7064Z" fill="url(#paint12_linear_1205_2141)"/>
<path d="M53.7864 30.987V20.9335H56.4896V22.6877H56.5943C56.7775 22.0637 57.0852 21.5924 57.5172 21.2739C57.9491 20.951 58.4466 20.7896 59.0095 20.7896C59.1491 20.7896 59.2996 20.7983 59.4611 20.8157C59.6225 20.8332 59.7643 20.8572 59.8865 20.8877V23.3618C59.7556 23.3226 59.5745 23.2876 59.3433 23.2571C59.112 23.2266 58.9004 23.2113 58.7084 23.2113C58.2982 23.2113 57.9317 23.3007 57.6088 23.4796C57.2903 23.6542 57.0372 23.8985 56.8495 24.2127C56.6663 24.5269 56.5746 24.889 56.5746 25.2992V30.987H53.7864Z" fill="url(#paint13_linear_1205_2141)"/>
<path d="M42.4292 19.919V17.5824H53.4383V19.919H49.3344V30.987H46.5331V19.919H42.4292Z" fill="url(#paint14_linear_1205_2141)"/>
<defs>
<linearGradient id="paint0_linear_1205_2141" x1="19.9684" y1="12.0351" x2="19.9684" y2="35.9649" gradientUnits="userSpaceOnUse">
<stop stop-color="white" stop-opacity="0.5"/>
<stop offset="1" stop-color="white" stop-opacity="0.8"/>
</linearGradient>
<linearGradient id="paint1_linear_1205_2141" x1="113.275" y1="3.98698" x2="113.275" y2="43.987" gradientUnits="userSpaceOnUse">
<stop stop-color="white" stop-opacity="0.5"/>
<stop offset="1" stop-color="white" stop-opacity="0.8"/>
</linearGradient>
<linearGradient id="paint2_linear_1205_2141" x1="113.275" y1="3.98698" x2="113.275" y2="43.987" gradientUnits="userSpaceOnUse">
<stop stop-color="white" stop-opacity="0.5"/>
<stop offset="1" stop-color="white" stop-opacity="0.8"/>
</linearGradient>
<linearGradient id="paint3_linear_1205_2141" x1="113.275" y1="3.987" x2="113.275" y2="43.987" gradientUnits="userSpaceOnUse">
<stop stop-color="white" stop-opacity="0.5"/>
<stop offset="1" stop-color="white" stop-opacity="0.8"/>
</linearGradient>
<linearGradient id="paint4_linear_1205_2141" x1="113.275" y1="3.98701" x2="113.275" y2="43.987" gradientUnits="userSpaceOnUse">
<stop stop-color="white" stop-opacity="0.5"/>
<stop offset="1" stop-color="white" stop-opacity="0.8"/>
</linearGradient>
<linearGradient id="paint5_linear_1205_2141" x1="113.275" y1="3.98698" x2="113.275" y2="43.987" gradientUnits="userSpaceOnUse">
<stop stop-color="white" stop-opacity="0.5"/>
<stop offset="1" stop-color="white" stop-opacity="0.8"/>
</linearGradient>
<linearGradient id="paint6_linear_1205_2141" x1="113.275" y1="3.98701" x2="113.275" y2="43.987" gradientUnits="userSpaceOnUse">
<stop stop-color="white" stop-opacity="0.5"/>
<stop offset="1" stop-color="white" stop-opacity="0.8"/>
</linearGradient>
<linearGradient id="paint7_linear_1205_2141" x1="113.275" y1="3.98698" x2="113.275" y2="43.987" gradientUnits="userSpaceOnUse">
<stop stop-color="white" stop-opacity="0.5"/>
<stop offset="1" stop-color="white" stop-opacity="0.8"/>
</linearGradient>
<linearGradient id="paint8_linear_1205_2141" x1="113.275" y1="3.98699" x2="113.275" y2="43.987" gradientUnits="userSpaceOnUse">
<stop stop-color="white" stop-opacity="0.5"/>
<stop offset="1" stop-color="white" stop-opacity="0.8"/>
</linearGradient>
<linearGradient id="paint9_linear_1205_2141" x1="113.275" y1="3.98698" x2="113.275" y2="43.987" gradientUnits="userSpaceOnUse">
<stop stop-color="white" stop-opacity="0.5"/>
<stop offset="1" stop-color="white" stop-opacity="0.8"/>
</linearGradient>
<linearGradient id="paint10_linear_1205_2141" x1="113.275" y1="3.98701" x2="113.275" y2="43.987" gradientUnits="userSpaceOnUse">
<stop stop-color="white" stop-opacity="0.5"/>
<stop offset="1" stop-color="white" stop-opacity="0.8"/>
</linearGradient>
<linearGradient id="paint11_linear_1205_2141" x1="113.275" y1="3.98698" x2="113.275" y2="43.987" gradientUnits="userSpaceOnUse">
<stop stop-color="white" stop-opacity="0.5"/>
<stop offset="1" stop-color="white" stop-opacity="0.8"/>
</linearGradient>
<linearGradient id="paint12_linear_1205_2141" x1="113.275" y1="3.98699" x2="113.275" y2="43.987" gradientUnits="userSpaceOnUse">
<stop stop-color="white" stop-opacity="0.5"/>
<stop offset="1" stop-color="white" stop-opacity="0.8"/>
</linearGradient>
<linearGradient id="paint13_linear_1205_2141" x1="113.275" y1="3.98701" x2="113.275" y2="43.987" gradientUnits="userSpaceOnUse">
<stop stop-color="white" stop-opacity="0.5"/>
<stop offset="1" stop-color="white" stop-opacity="0.8"/>
</linearGradient>
<linearGradient id="paint14_linear_1205_2141" x1="113.275" y1="3.98701" x2="113.275" y2="43.987" gradientUnits="userSpaceOnUse">
<stop stop-color="white" stop-opacity="0.5"/>
<stop offset="1" stop-color="white" stop-opacity="0.8"/>
</linearGradient>
</defs>
</svg>
