<svg width="90" height="45" viewBox="0 0 90 45" fill="none" xmlns="http://www.w3.org/2000/svg">
<g clip-path="url(#clip0_2808_9005)">
<path d="M16.65 24.3898L11.16 24.7498L15.84 11.6548L1.53 13.8148L0 28.4398L3.42 28.3048L2.79 44.9998L16.65 24.3898Z" fill="#EC1B2E"/>
<path d="M1.53125 12.6L15.6613 10.71L9.00125 7.60502C9.00125 7.60502 9.85625 2.16002 4.99625 0.27002L4.41125 2.11502C4.41125 2.11502 7.56125 2.79002 7.11125 7.74002L1.53125 12.6Z" fill="#EC1B2E"/>
<path d="M25.1095 33.525C25.0195 33.435 25.0195 33.345 25.0195 33.165V12.015C25.0195 11.88 25.0645 11.745 25.1095 11.655C25.1995 11.565 25.2895 11.52 25.4245 11.52H27.1795C27.4045 11.52 27.5395 11.61 27.6745 11.835L35.9545 27.45C35.9995 27.495 36.0445 27.54 36.0445 27.54C36.0895 27.54 36.0895 27.495 36.0895 27.405V12.06C36.0895 11.925 36.1345 11.79 36.1795 11.7C36.2695 11.61 36.3595 11.565 36.4945 11.565H38.2945C38.4295 11.565 38.5195 11.61 38.6095 11.7C38.6995 11.79 38.6995 11.88 38.6995 12.06V33.21C38.6995 33.345 38.6545 33.48 38.6095 33.57C38.5195 33.66 38.4295 33.705 38.2945 33.705H36.5395C36.3145 33.705 36.1795 33.615 36.0445 33.39L27.7645 17.64C27.7195 17.55 27.6745 17.55 27.6745 17.55C27.6295 17.55 27.6295 17.595 27.6295 17.685L27.6745 33.165C27.6745 33.3 27.6295 33.435 27.5845 33.525C27.4945 33.615 27.4045 33.66 27.2695 33.66H25.4695C25.2895 33.66 25.1995 33.615 25.1095 33.525Z" fill="white"/>
<path d="M54.3145 33.2999L53.3695 29.7449C53.3245 29.6549 53.2795 29.6099 53.2345 29.6099H45.6745C45.6295 29.6099 45.5845 29.6549 45.5395 29.7449L44.5495 33.2999C44.4595 33.5699 44.3245 33.6599 44.0995 33.6599H42.1645C41.8495 33.6599 41.7595 33.4799 41.8495 33.1199L47.6995 11.9249C47.7895 11.6549 47.9245 11.5649 48.1495 11.5649H50.6245C50.8495 11.5649 51.0295 11.6999 51.0745 11.9249L56.9695 33.1199C56.9695 33.1649 57.0145 33.2099 57.0145 33.2999C57.0145 33.5249 56.8795 33.6599 56.6545 33.6599H54.7195C54.5395 33.6599 54.3595 33.5249 54.3145 33.2999ZM46.3495 27.2249H52.5595C52.6495 27.2249 52.6945 27.1799 52.6495 27.0449L49.4995 15.2549C49.4995 15.1649 49.4545 15.1199 49.4095 15.1199C49.3645 15.1199 49.3645 15.1649 49.3195 15.2549L46.2145 27.0449C46.2145 27.1799 46.2595 27.2249 46.3495 27.2249Z" fill="white"/>
<path d="M62.4586 33.0299C61.4686 32.4449 60.6586 31.5899 60.1186 30.4649C59.5786 29.3399 59.3086 28.0799 59.3086 26.6399V18.5399C59.3086 17.0999 59.5786 15.7949 60.1186 14.7149C60.6586 13.6349 61.4686 12.7799 62.4586 12.1949C63.4486 11.6099 64.6186 11.2949 65.9236 11.2949C67.2286 11.2949 68.3536 11.6099 69.3886 12.1949C70.3786 12.7799 71.1436 13.5899 71.7286 14.6249C72.2686 15.6599 72.5386 16.8299 72.5386 18.1349V18.3149C72.5386 18.4499 72.4936 18.5849 72.4486 18.6749C72.3586 18.7649 72.2686 18.8099 72.1336 18.8099H70.3336C70.1986 18.8099 70.1086 18.7649 70.0186 18.7199C69.9286 18.6749 69.9286 18.5849 69.9286 18.4949V18.2249C69.9286 16.9649 69.5686 15.9299 68.8486 15.1649C68.1286 14.3549 67.1386 13.9949 65.9686 13.9949C64.7536 13.9949 63.8086 14.3999 63.0436 15.2099C62.3236 16.0199 61.9636 17.1449 61.9636 18.4949V26.7749C61.9636 28.1249 62.3236 29.2499 63.0886 30.0599C63.8536 30.8699 64.8436 31.2749 66.0586 31.2749C67.2736 31.2749 68.1736 30.9149 68.8936 30.1949C69.5686 29.4749 69.9286 28.4849 69.9286 27.2249V24.8399C69.9286 24.7499 69.8836 24.6599 69.7936 24.6599H66.2836C66.1486 24.6599 66.0586 24.6149 65.9686 24.5249C65.8786 24.4349 65.8786 24.3449 65.8786 24.1649V22.5449C65.8786 22.4099 65.9236 22.2749 65.9686 22.1849C66.0586 22.0949 66.1486 22.0499 66.2836 22.0499H72.1336C72.2686 22.0499 72.3586 22.0949 72.4486 22.1849C72.5386 22.2749 72.5386 22.3649 72.5386 22.5449V26.4149C72.5386 28.8449 71.9536 30.6899 70.7836 31.9949C69.6136 33.2999 67.9936 33.9299 65.9686 33.9299C64.6186 33.9299 63.4486 33.6149 62.4586 33.0299Z" fill="white"/>
<path d="M87.2539 33.2999L86.3089 29.7449C86.2639 29.6549 86.2189 29.6099 86.1739 29.6099H78.6139C78.5689 29.6099 78.5239 29.6549 78.4789 29.7449L77.5339 33.2999C77.4439 33.5699 77.3089 33.6599 77.0839 33.6599H75.1489C74.8339 33.6599 74.7439 33.4799 74.8339 33.1199L80.6839 11.9249C80.7739 11.6549 80.9089 11.5649 81.1339 11.5649H83.6089C83.8339 11.5649 84.0139 11.6999 84.0589 11.9249L89.9539 33.1199C89.9539 33.1649 89.9989 33.2099 89.9989 33.2999C89.9989 33.5249 89.8639 33.6599 89.6389 33.6599H87.7039C87.4789 33.6599 87.2989 33.5249 87.2539 33.2999ZM79.2439 27.2249H85.4539C85.5439 27.2249 85.5889 27.1799 85.5439 27.0449L82.3939 15.2549C82.3939 15.1649 82.3489 15.1199 82.3039 15.1199C82.2589 15.1199 82.2589 15.1649 82.2139 15.2549L79.1089 27.0449C79.1539 27.1799 79.1539 27.2249 79.2439 27.2249Z" fill="white"/>
</g>
<defs>
<clipPath id="clip0_2808_9005">
<rect width="90" height="45" fill="white"/>
</clipPath>
</defs>
</svg>
