<svg width="120" height="43" viewBox="0 0 120 43" fill="none" xmlns="http://www.w3.org/2000/svg">
<path d="M50.9714 11.9609C49.0432 11.9609 47.641 12.438 46.4497 13.5384L44.3461 15.4457C44.1707 15.5928 43.82 15.7028 43.5751 15.4821C43.3294 15.2622 43.2946 14.9687 43.5048 14.6752L44.6265 12.9142C44.8019 12.6571 44.662 12.3272 44.3461 12.3272H41.6468C41.3316 12.3272 41.0859 12.5843 41.0859 12.9142V30.0839C41.0859 30.4138 41.3316 30.6709 41.6468 30.6709H44.4512C44.7664 30.6709 45.012 30.4138 45.012 30.0839V20.3986C45.012 15.9599 48.5526 15.2629 49.8845 15.2629C52.7236 15.2629 53.7403 17.3909 53.7403 19.0047V30.0839C53.7403 30.4138 53.9859 30.6709 54.3012 30.6709H57.1055C57.4207 30.6709 57.6664 30.4138 57.6664 30.0839V18.6377C57.6664 14.5288 55.1069 11.9609 50.9707 11.9609H50.9714Z" fill="white"/>
<path d="M69.095 11.8877C63.6617 11.8877 60.1914 15.3732 60.1914 20.1055V22.7105C60.1914 27.6999 63.6617 31.1118 69.095 31.1118C73.8972 31.1118 77.2624 28.5068 77.6131 24.9849C77.6487 24.6178 77.403 24.3615 77.0523 24.3615H74.3182C74.0726 24.3615 73.8624 24.5086 73.7921 24.7649C73.4414 25.9389 71.7943 27.6999 69.095 27.6999C66.3958 27.6999 63.8718 25.6454 63.9066 22.7105L63.9421 19.4457C63.9769 16.9878 66.4313 15.3004 69.095 15.3004C71.5139 15.3004 73.8624 16.7315 74.1073 19.0794C74.1276 19.3509 73.9494 19.5958 73.6936 19.6474L65.8342 21.2438C65.5189 21.3174 65.2733 21.6109 65.2733 21.9771V22.0136C65.2733 22.3434 65.5885 22.6369 66.0443 22.6369H77.332C77.6421 22.6369 77.8929 22.3738 77.8929 22.05V19.7392C77.8929 15.374 74.282 11.8885 69.0943 11.8885L69.095 11.8877Z" fill="white"/>
<path d="M88.6513 11.8875C84.2694 11.8875 80.4839 14.5653 80.4839 18.0872C80.4839 18.3807 80.7295 18.6006 81.0448 18.6006H83.8839C84.1643 18.6006 84.3745 18.3807 84.41 18.0872C84.6904 16.4734 86.5484 15.2994 88.5462 15.2994C90.9295 15.2994 92.5426 16.8404 92.5426 19.4819V22.6739C92.5426 25.9387 90.2288 27.5897 87.3542 27.5897C85.1107 27.5897 83.8136 26.7092 83.8136 25.2781C83.8136 24.0306 84.4448 22.9666 87.0382 22.3432L90.789 21.2792C91.1745 21.1693 91.315 20.8386 91.2448 20.4723C91.21 20.1788 90.8948 20.0317 90.6136 20.0317H86.723C83.4281 20.0317 80.0977 22.2325 80.0977 25.4609V25.9743C80.0977 29.2763 83.0774 31.0001 86.4774 31.0001C88.6506 31.0001 90.5085 30.1196 91.665 29.0928L93.3832 27.5518C93.6636 27.2947 93.944 27.2947 94.189 27.5518C94.3991 27.7717 94.3288 28.1023 94.1535 28.3587L93.102 30.0832C92.9266 30.3403 93.0665 30.6702 93.3824 30.6702H95.9064C96.2216 30.6702 96.4672 30.4131 96.4672 30.0832V18.9669C96.4672 14.7117 93.5578 11.8867 88.6498 11.8867L88.6513 11.8875Z" fill="white"/>
<path d="M111.612 12.3281H107.686C106.319 12.3281 104.987 13.2086 104.04 14.0527L102.498 15.4466C102.323 15.5937 102.007 15.7037 101.797 15.5201C101.551 15.3366 101.446 14.9696 101.657 14.6761L102.779 12.9151C102.954 12.658 102.814 12.3281 102.498 12.3281H99.8695C99.5542 12.3281 99.3086 12.5852 99.3086 12.9151V30.0848C99.3086 30.4147 99.5542 30.6718 99.8695 30.6718H102.744C103.059 30.6718 103.305 30.4147 103.305 30.0848V21.28C103.305 17.501 104.777 15.8136 107.967 15.8136H111.613C111.928 15.8136 112.174 15.5565 112.174 15.2266V12.9151C112.174 12.5852 111.928 12.3281 111.613 12.3281H111.612Z" fill="white"/>
<path d="M30.5496 8.19043C29.6076 8.19043 28.7329 8.70158 28.2394 9.54186L22.9228 17.8029C22.7496 18.0751 22.8199 18.4422 23.08 18.6234C23.2909 18.7706 23.5699 18.7524 23.7619 18.5794L28.9952 13.829C29.0822 13.7471 29.2162 13.7554 29.2945 13.8464C29.33 13.8881 29.3489 13.942 29.3489 13.9973V28.8706C29.3489 28.9935 29.2539 29.0921 29.1365 29.0921C29.0735 29.0921 29.0141 29.0633 28.9742 29.0124L13.1547 9.19452C12.6394 8.55824 11.8829 8.19119 11.0865 8.19043H10.5336C9.03726 8.19043 7.82422 9.45995 7.82422 11.026V31.9739C7.82422 33.54 9.03726 34.8095 10.5336 34.8095C11.4757 34.8095 12.3503 34.2983 12.8438 33.458L18.1605 25.197C18.3336 24.9248 18.2633 24.5577 18.0032 24.3765C17.7923 24.2294 17.5133 24.2476 17.3213 24.4205L12.088 29.1709C12.001 29.2528 11.867 29.2445 11.7887 29.1535C11.7532 29.1118 11.7344 29.0579 11.7351 29.0026V14.1255C11.7351 14.0026 11.83 13.904 11.9474 13.904C12.0097 13.904 12.0699 13.9329 12.1097 13.9837L27.9271 33.8054C28.4423 34.4417 29.1989 34.8087 29.9952 34.8095H30.5481C32.0445 34.8102 33.2583 33.5415 33.2597 31.9754V11.026C33.2597 9.45995 32.0467 8.19043 30.5503 8.19043H30.5496Z" fill="white"/>
</svg>
