<svg width="134" height="36" viewBox="0 0 134 36" fill="none" xmlns="http://www.w3.org/2000/svg">
<g clip-path="url(#clip0_2808_8941)">
<path fill-rule="evenodd" clip-rule="evenodd" d="M19.8739 30.6755C27.0935 29.5745 32.6248 23.3378 32.6248 15.809C32.6248 13.8632 32.2552 12.0038 31.5827 10.297L34.051 6.00097H28.9875C26.2301 2.79802 22.1463 0.77002 17.5889 0.77002C13.0315 0.77002 8.94769 2.79802 6.1903 6.00097H1.00781L3.55436 10.4013C2.90757 12.0794 2.553 13.9028 2.553 15.809C2.553 23.3315 8.07495 29.564 15.2858 30.6726L17.5889 34.6524L19.8739 30.6755Z" fill="#1E1E1F"/>
<path fill-rule="evenodd" clip-rule="evenodd" d="M17.5902 1.4257C13.2692 1.4257 9.39773 3.35524 6.78217 6.40555L6.56977 6.61698H2.46225L4.55045 10.276L4.42828 10.5943C3.81538 12.1908 3.33361 13.8536 3.33361 15.6695C3.33361 22.8299 8.56911 28.8364 15.4056 29.8915L15.7418 29.9435L17.6062 33.1465L19.4195 29.9459L19.7577 29.8942C26.6025 28.8463 31.8469 22.9086 31.8469 15.7421C31.8469 13.8885 31.4418 12.1188 30.8045 10.495L30.6793 10.1759L32.6953 6.61698H28.6107L28.3983 6.40555C25.7826 3.35524 21.9113 1.4257 17.5902 1.4257ZM5.92323 5.22756C8.79217 2.01953 12.9567 0 17.5902 0C22.2238 0 26.3883 2.01953 29.2573 5.22756H35.1486L32.2482 10.2956C32.8718 11.9937 33.2666 13.8288 33.2666 15.7421C33.2666 23.5042 27.6727 29.9533 20.3121 31.2476L17.6106 36L14.8513 31.2446C7.49917 29.9434 1.91386 23.4257 1.91386 15.6695C1.91386 13.7968 2.38524 12.0717 2.98378 10.404L0 5.22756H5.92323Z" fill="white"/>
<path fill-rule="evenodd" clip-rule="evenodd" d="M5.20312 8.1748L17.6022 29.8491L19.0566 27.3088L14.1025 18.6445H18.4865L12.5026 8.1748H5.20312ZM14.0752 8.1748L22.0381 22.0922L23.421 19.673L18.3395 10.791H19.8485L24.1744 18.3541L25.6107 15.8411L22.7211 10.791H25.6834L24.8846 12.1881L26.2924 14.6526L30.0013 8.1748H14.0752ZM9.61299 10.791L12.6116 16.0317H14.1752L11.1765 10.791H9.61299Z" fill="#F6821F"/>
<path fill-rule="evenodd" clip-rule="evenodd" d="M7.43345 15.2295C7.42144 15.4327 7.41534 15.6376 7.41534 15.8439C7.41534 19.8431 9.70364 23.3041 13.0335 24.9713L14.1721 26.952C9.44428 25.5039 6.00391 21.0786 6.00391 15.8439C6.00391 14.951 6.10402 14.0816 6.29353 13.2465L7.43345 15.2295ZM21.7968 6.60444C20.5004 5.99635 19.0549 5.65681 17.5306 5.65681C16.0063 5.65681 14.5608 5.99635 13.2645 6.60444H10.5513C12.4885 5.11796 14.9072 4.23535 17.5306 4.23535C20.1541 4.23535 22.5728 5.11796 24.5099 6.60444H21.7968Z" fill="#F6821F"/>
<path d="M7.41534 15.8434C7.41534 15.6372 7.42144 15.4323 7.43345 15.2291L6.29353 13.2461C6.10402 14.0812 6.00391 14.9505 6.00391 15.8434C6.00391 21.0782 9.44428 25.5035 14.1721 26.9516L13.0335 24.9709C9.70364 23.3037 7.41534 19.8427 7.41534 15.8434Z" fill="#F6821F"/>
<path d="M27.8115 15.8439C27.8115 15.6376 27.7754 15.4328 27.7633 15.2295L28.8905 13.2466C29.0801 14.0816 29.2229 14.951 29.2229 15.8439C29.2229 21.0786 25.7826 25.5041 21.0547 26.952L22.1932 24.9715C25.5232 23.3041 27.8115 19.8431 27.8115 15.8439Z" fill="#F6821F"/>
<path d="M43.2274 24.1197H40.9062V10.9131H46.7189C48.0548 10.9131 49.1062 11.3091 49.8732 12.1011C50.6536 12.8931 51.0437 13.8765 51.0437 15.0513C51.0437 16.2129 50.6536 17.1963 49.8732 18.0015C49.1062 18.7935 48.0548 19.1895 46.7189 19.1895H43.2274V24.1197ZM46.4015 17.1501C47.0629 17.1501 47.605 16.9587 48.0283 16.5759C48.4515 16.1931 48.6631 15.6849 48.6631 15.0513C48.6631 14.4177 48.4515 13.9095 48.0283 13.5267C47.605 13.1439 47.0629 12.9525 46.4015 12.9525H43.2274V17.1501H46.4015ZM57.0499 24.3573C55.595 24.3573 54.3916 23.8952 53.4393 22.9713C52.5002 22.034 52.0308 20.8197 52.0308 19.3281C52.0308 17.9289 52.4871 16.7475 53.3996 15.7839C54.3254 14.8071 55.4892 14.3187 56.8912 14.3187C58.3062 14.3187 59.4437 14.8071 60.3034 15.7839C61.1763 16.7607 61.6128 18.0081 61.6128 19.5261V20.0211H54.213C54.2924 20.7735 54.6031 21.4004 55.1454 21.9021C55.6876 22.4037 56.3952 22.6545 57.2681 22.6545C57.7574 22.6545 58.2467 22.5621 58.7362 22.3773C59.2386 22.1924 59.6552 21.935 59.986 21.6051L60.9383 22.9713C59.9727 23.8952 58.6767 24.3573 57.0499 24.3573ZM59.5892 18.5559C59.5627 17.8959 59.318 17.3085 58.8552 16.7937C58.4054 16.2789 57.7508 16.0215 56.8912 16.0215C56.0712 16.0215 55.4297 16.2789 54.9669 16.7937C54.5039 17.2953 54.246 17.8827 54.193 18.5559H59.5892ZM77.4962 24.1197H75.4131V17.8827C75.4131 16.7343 74.8907 16.1601 73.8459 16.1601C73.4095 16.1601 72.9862 16.2855 72.5762 16.5363C72.1663 16.7871 71.8489 17.0841 71.624 17.4273V24.1197H69.541V17.8827C69.541 16.7343 69.012 16.1601 67.9539 16.1601C67.5306 16.1601 67.114 16.2855 66.704 16.5363C66.3073 16.7871 65.9899 17.0907 65.7518 17.4471V24.1197H63.6688V14.5563H65.7518V15.8631C65.9899 15.5067 66.3998 15.1635 66.9818 14.8335C67.5769 14.4903 68.2051 14.3187 68.8664 14.3187C70.2551 14.3187 71.128 14.9061 71.4851 16.0809C71.7894 15.6057 72.239 15.1965 72.8341 14.8533C73.4293 14.4969 74.0641 14.3187 74.7386 14.3187C76.5769 14.3187 77.4962 15.2823 77.4962 17.2095V24.1197ZM82.2774 21.2487C82.5022 21.6051 82.8461 21.9087 83.309 22.1595C83.7852 22.3971 84.2613 22.5159 84.7374 22.5159C85.5573 22.5159 86.212 22.2255 86.7014 21.6447C87.2039 21.0507 87.4553 20.2851 87.4553 19.3479C87.4553 18.4106 87.2039 17.6451 86.7014 17.0511C86.212 16.4571 85.5573 16.1601 84.7374 16.1601C84.2613 16.1601 83.7917 16.2855 83.3289 16.5363C82.8659 16.7871 82.5155 17.0973 82.2774 17.4669V21.2487ZM82.2774 24.1197H80.1944V10.9131H82.2774V15.8829C83.0576 14.8401 84.0827 14.3187 85.3524 14.3187C86.5956 14.3187 87.614 14.7807 88.4075 15.7047C89.2011 16.6155 89.5978 17.8299 89.5978 19.3479C89.5978 20.8923 89.2011 22.1132 88.4075 23.0109C87.614 23.9085 86.5956 24.3573 85.3524 24.3573C84.0959 24.3573 83.071 23.8425 82.2774 22.8129V24.1197Z" fill="white"/>
<path d="M102.018 24.1197H99.3397L96.4036 19.1895H94.1024V24.1197H91.7812V10.9131H97.5939C98.8901 10.9131 99.9349 11.2959 100.728 12.0615C101.522 12.8271 101.919 13.8237 101.919 15.0513C101.919 16.1601 101.614 17.0511 101.006 17.7243C100.398 18.3843 99.6571 18.7868 98.7842 18.9321L102.018 24.1197ZM97.2765 17.1501C97.9379 17.1501 98.48 16.9587 98.9033 16.5759C99.3266 16.1931 99.5381 15.6849 99.5381 15.0513C99.5381 14.4177 99.3266 13.9095 98.9033 13.5267C98.48 13.1439 97.9379 12.9525 97.2765 12.9525H94.1024V17.1501H97.2765ZM107.903 24.3573C106.422 24.3573 105.232 23.8754 104.332 22.9119C103.433 21.935 102.983 20.7405 102.983 19.3281C102.983 17.9157 103.433 16.7277 104.332 15.7641C105.232 14.8005 106.422 14.3187 107.903 14.3187C109.398 14.3187 110.594 14.8005 111.494 15.7641C112.393 16.7277 112.843 17.9157 112.843 19.3281C112.843 20.7537 112.393 21.9483 111.494 22.9119C110.594 23.8754 109.398 24.3573 107.903 24.3573ZM107.903 22.5159C108.763 22.5159 109.437 22.2122 109.927 21.6051C110.429 20.9846 110.68 20.2257 110.68 19.3281C110.68 18.4437 110.429 17.6979 109.927 17.0907C109.437 16.4703 108.763 16.1601 107.903 16.1601C107.057 16.1601 106.382 16.4703 105.88 17.0907C105.39 17.6979 105.146 18.4437 105.146 19.3281C105.146 20.2257 105.39 20.9846 105.88 21.6051C106.382 22.2122 107.057 22.5159 107.903 22.5159ZM119.315 24.3573C117.86 24.3573 116.67 23.8887 115.744 22.9515C114.818 22.0011 114.355 20.7933 114.355 19.3281C114.355 17.8761 114.818 16.6815 115.744 15.7443C116.67 14.7939 117.86 14.3187 119.315 14.3187C120.915 14.3187 122.139 14.8863 122.985 16.0215L121.616 17.2887C121.087 16.5363 120.353 16.1601 119.414 16.1601C118.541 16.1601 117.84 16.4571 117.311 17.0511C116.782 17.6319 116.518 18.3908 116.518 19.3281C116.518 20.2653 116.782 21.0309 117.311 21.6249C117.84 22.2189 118.541 22.5159 119.414 22.5159C120.327 22.5159 121.061 22.1397 121.616 21.3873L122.985 22.6545C122.139 23.7897 120.915 24.3573 119.315 24.3573ZM133.779 24.1197H131.16L128.224 20.1795L126.895 21.5457V24.1197H124.812V10.9131H126.895V19.1697L131.12 14.5563H133.699L129.712 18.8925L133.779 24.1197Z" fill="#F6821F"/>
</g>
<defs>
<clipPath id="clip0_2808_8941">
<rect width="134" height="36" fill="white"/>
</clipPath>
</defs>
</svg>
