<svg width="132" height="28" viewBox="0 0 132 28" fill="none" xmlns="http://www.w3.org/2000/svg">
<path fill-rule="evenodd" clip-rule="evenodd" d="M35.8655 24.0317L37.1066 18.2165C37.7883 18.296 38.6765 18.3703 39.9123 18.3703C42.7999 18.3703 45.1567 17.5844 46.7942 16.1917C48.4341 14.7968 49.3413 12.8027 49.3413 10.4128C49.3413 8.79189 48.9071 7.42897 48.0899 6.36791C47.2726 5.30687 46.0794 4.55737 44.5782 4.15064C43.7048 3.91345 42.7269 3.7915 41.656 3.7915C40.5218 3.7915 38.302 4.09488 36.9637 4.32018L36.8774 4.33431L32.6641 24.0325H35.8648L35.8655 24.0317ZM39.7738 15.4363C39.339 15.4363 38.952 15.4295 38.5961 15.4133C38.2822 15.3984 37.9925 15.376 37.7147 15.3434L39.5203 6.90625C40.0966 6.82446 40.9065 6.72482 41.7393 6.72482C42.253 6.72482 42.7218 6.76646 43.1455 6.84676C43.9613 7.00142 44.6098 7.29959 45.0955 7.71747C45.8296 8.34948 46.2062 9.27149 46.2062 10.4404C46.2062 11.9387 45.6666 13.1811 44.6032 14.0517C43.5368 14.9254 41.9287 15.4363 39.7738 15.4363Z" fill="white"/>
<path d="M64.0452 24.0318L68.2983 4.14551H65.0962L60.8438 24.0318H64.046H64.0452Z" fill="white"/>
<path fill-rule="evenodd" clip-rule="evenodd" d="M104.468 11.3266L106.017 4.14535H109.222L106.414 17.1821C106.164 18.3242 105.946 19.6209 105.946 20.3852C105.946 20.6984 105.987 20.9377 106.069 21.0946C106.109 21.1712 106.158 21.2248 106.213 21.2597C106.268 21.2947 106.337 21.3155 106.427 21.3155C106.543 21.3155 106.688 21.2619 106.858 21.1482C107.027 21.0358 107.209 20.8723 107.397 20.6723C107.767 20.2812 108.149 19.7622 108.489 19.2454C108.487 19.1807 108.486 19.1153 108.486 19.0484C108.486 16.9159 109.25 14.7276 110.577 13.071C111.904 11.4136 113.8 10.2819 116.06 10.2819C117.628 10.2819 118.882 10.8299 119.743 11.769C120.603 12.7066 121.061 14.022 121.061 15.538C121.061 19.16 118.882 22.9379 115.475 24.025C114.85 24.2242 114.179 24.3328 113.486 24.3328C112.794 24.3328 112.162 24.2257 111.597 24.0235C110.622 23.6763 109.854 23.048 109.325 22.2151C108.669 23.0413 107.938 23.671 107.122 24.0205C106.65 24.2235 106.143 24.3328 105.624 24.3328C105.105 24.3328 104.644 24.2265 104.252 24.016C103.421 23.5692 102.939 22.6717 102.874 21.4113C102.143 22.607 101.157 23.5588 99.8956 24.0235C99.3532 24.2227 98.7637 24.3313 98.1225 24.3313C97.5226 24.3313 96.9728 24.2227 96.4797 24.0213C95.4472 23.6003 94.6756 22.7809 94.2238 21.7378C93.5362 22.871 92.7875 23.6287 91.9436 24.019C91.4911 24.2288 91.0047 24.3313 90.5109 24.3313C90.0172 24.3313 89.5786 24.222 89.2086 24.0145C88.4172 23.5706 87.9624 22.7007 87.8777 21.5862C87.1967 22.6828 86.2851 23.5759 85.0948 24.0227C84.5642 24.222 83.9813 24.3313 83.3416 24.3313C82.7446 24.3313 82.1904 24.2242 81.6907 24.0219C81.0687 23.7706 80.5816 23.3587 80.208 22.8449C79.5432 23.5045 78.7649 23.9855 77.9314 24.2435C77.0027 24.5306 75.9835 24.541 75.0313 24.1484C74.0667 23.7499 73.2994 22.9899 72.8108 21.9691C72.561 21.4463 72.309 20.8255 72.0665 20.2269C71.9987 20.0589 71.9309 19.8923 71.8646 19.7302C71.7172 19.3718 71.5697 19.0209 71.4172 18.6826C71.0723 18.754 70.7406 18.8022 70.4274 18.8306L69.3124 24.045H66.0078L70.2823 4.05762H73.5876L71.2168 15.1417C72.8845 14.6576 75.1839 13.288 76.764 9.9064L79.8933 11.395C78.4333 14.5201 76.4125 16.4363 74.433 17.5441C74.5759 17.8676 74.7086 18.1859 74.8331 18.4892C74.9156 18.6907 74.9937 18.8826 75.0682 19.0662C75.3026 19.6432 75.5015 20.1354 75.705 20.5593C75.8847 20.9348 76.0926 21.0834 76.2489 21.1474C76.4183 21.2173 76.666 21.2441 76.991 21.1437C77.6462 20.9407 78.5107 20.2246 78.9381 18.8521L79.2513 17.4683C79.3736 16.5574 79.6044 15.7284 79.8969 15.1179C81.2964 12.1988 84.0925 10.2254 87.1886 10.2254C88.196 10.2254 89.2485 10.4685 90.1683 10.8358C91.0872 11.2031 91.8854 11.6991 92.3791 12.2137L92.4278 12.2642L92.4124 12.3326C92.3143 12.7654 92.1912 13.2933 92.0563 13.8725C91.8374 14.8108 91.5876 15.8845 91.3606 16.9114C91.1779 17.7412 91.0113 18.5376 90.8897 19.2023C90.7681 19.8708 90.6951 20.3964 90.6951 20.6902C90.6951 20.9117 90.7409 21.0701 90.8101 21.1697C90.875 21.2634 90.9671 21.3132 91.0924 21.3132C91.2693 21.3132 91.4786 21.2158 91.7203 20.9905C91.9605 20.7668 92.2193 20.4299 92.4935 19.9845C93.041 19.0937 93.6386 17.7887 94.2725 16.1404C95.4406 12.604 98.4401 10.2811 101.446 10.2811C102.826 10.2811 103.787 10.6931 104.471 11.3251L104.468 11.3266ZM88.3361 16.0385L88.922 13.5669C88.3759 13.2419 87.7561 13.0219 86.9653 13.0219C85.5901 13.0219 84.3792 13.7877 83.5074 14.9291C82.6348 16.0704 82.1123 17.5754 82.1123 19.0223C82.1123 19.7555 82.2877 20.3503 82.6068 20.7593C82.923 21.1646 83.3894 21.3995 84.0041 21.3995C84.9254 21.3995 85.8053 20.9303 86.5593 20.0217C87.3139 19.1116 87.9374 17.7672 88.3361 16.0392V16.0385ZM103.754 14.5648L103.904 13.8368C103.349 13.404 102.594 13.0784 101.61 13.0784C100.291 13.0784 99.1284 13.8227 98.2905 14.9455C97.4526 16.0689 96.9491 17.5597 96.9491 19.0223C96.9491 19.7845 97.1253 20.3793 97.4341 20.7816C97.74 21.1794 98.1859 21.4002 98.7584 21.4002C99.8079 21.4002 100.833 20.7266 101.714 19.5205C102.593 18.3168 103.314 16.6014 103.754 14.5654V14.5648ZM112.182 20.6797C112.522 21.1214 113.049 21.3987 113.817 21.3987C114.921 21.3987 115.931 20.67 116.674 19.5815C117.414 18.4951 117.869 17.072 117.869 15.7344C117.869 15.0131 117.706 14.3833 117.363 13.9365C117.024 13.4947 116.497 13.2167 115.727 13.2167C114.624 13.2167 113.614 13.9521 112.872 15.0443C112.132 16.1344 111.676 17.5583 111.676 18.8826C111.676 19.6039 111.839 20.2328 112.182 20.6797Z" fill="white"/>
<path d="M131.934 20.2883L131.86 20.3967C131.273 21.2622 130.475 22.2274 129.93 22.7114C129.486 23.1085 128.976 23.4773 128.413 23.7629C127.733 24.1094 126.975 24.3324 126.164 24.3324C125.475 24.3324 124.88 24.2089 124.377 23.9799C123.015 23.359 122.381 21.9798 122.381 20.3024C122.381 19.6383 122.457 18.9915 122.541 18.4836V18.4792L122.543 18.468C122.574 18.2902 122.604 18.129 122.634 17.9907L123.625 13.3561H121.434L122.031 10.5618H124.206L125.367 5.19336H128.57L127.403 10.5618H131.283L130.687 13.3561H126.795L125.792 18.0999C125.79 18.1103 125.789 18.12 125.786 18.1296V18.1334L125.785 18.1349C125.783 18.146 125.782 18.1565 125.78 18.1675H125.778L125.777 18.178C125.646 18.845 125.545 19.4451 125.545 19.9402C125.545 20.399 125.639 20.7522 125.805 20.9864C125.967 21.2154 126.204 21.3433 126.524 21.3433C126.891 21.3433 127.224 21.211 127.599 20.9425C127.974 20.6718 128.382 20.2696 128.895 19.7402C128.935 19.6949 129.186 19.3878 129.458 19.0547L129.677 18.787L131.934 20.2883Z" fill="white"/>
<path fill-rule="evenodd" clip-rule="evenodd" d="M55.9653 10.2827C53.705 10.2827 51.8087 11.4137 50.4815 13.0717C49.1549 14.7284 48.3906 16.9159 48.3906 19.0492C48.3906 21.4352 49.5065 23.3135 51.5044 24.0251C52.0681 24.2265 52.699 24.3329 53.3911 24.3329C54.0831 24.3329 54.7522 24.2251 55.3758 24.0266C58.7851 22.9417 60.9665 19.1622 60.9665 15.5389C60.9665 14.0228 60.5081 12.7074 59.648 11.7698C58.7865 10.8314 57.5329 10.2827 55.9653 10.2827ZM53.7234 21.3988C52.9555 21.3988 52.4278 21.1207 52.0881 20.6798C51.7446 20.2329 51.5825 19.6039 51.5825 18.8826C51.5825 17.5583 52.038 16.1352 52.7779 15.0444C53.52 13.9521 54.5305 13.2167 55.6337 13.2167C56.4023 13.2167 56.93 13.4948 57.269 13.9365C57.6125 14.3834 57.7746 15.0132 57.7746 15.7345C57.7746 17.0721 57.3191 18.4952 56.5792 19.5816C55.8378 20.6701 54.8267 21.3988 53.7234 21.3988Z" fill="white"/>
<path d="M14.5342 5.96406C17.2866 5.96406 19.5177 4.6541 19.5177 3.03818C19.5177 1.42227 17.2866 0.112305 14.5342 0.112305C11.782 0.112305 9.55078 1.42227 9.55078 3.03818C9.55078 4.6541 11.782 5.96406 14.5342 5.96406Z" fill="white"/>
<path d="M14.5342 27.9983C17.2866 27.9983 19.5177 26.6883 19.5177 25.0724C19.5177 23.4565 17.2866 22.1465 14.5342 22.1465C11.782 22.1465 9.55078 23.4565 9.55078 25.0724C9.55078 26.6883 11.782 27.9983 14.5342 27.9983Z" fill="white"/>
<path d="M7.58731 10.0093C8.96345 7.60452 8.9549 5.00022 7.56819 4.19247C6.18148 3.38471 3.94174 4.67938 2.5656 7.08418C1.18945 9.489 1.19801 12.0932 2.58472 12.901C3.97143 13.7088 6.21116 12.4141 7.58731 10.0093Z" fill="white"/>
<path d="M26.5024 21.0264C27.8786 18.6216 27.8697 16.0171 26.4827 15.2092C25.0957 14.4012 22.8557 15.6957 21.4795 18.1005C20.1033 20.5053 20.1122 23.1098 21.4992 23.9178C22.8863 24.7257 25.1263 23.4312 26.5024 21.0264Z" fill="white"/>
<path d="M7.56863 23.9187C8.9557 23.1108 8.96455 20.5063 7.5884 18.1015C6.21224 15.6967 3.97223 14.4022 2.58517 15.2101C1.19812 16.0182 1.18927 18.6226 2.56541 21.0274C3.94156 23.4322 6.18158 24.7267 7.56863 23.9187Z" fill="white"/>
<path d="M26.4827 12.9007C27.8698 12.0927 27.8786 9.48826 26.5024 7.08345C25.1264 4.67865 22.8863 3.38413 21.4992 4.19209C20.1122 5.00005 20.1033 7.60452 21.4795 10.0093C22.8557 12.4142 25.0957 13.7087 26.4827 12.9007Z" fill="white"/>
</svg>
