<svg width="153" height="27" viewBox="0 0 153 27" fill="none" xmlns="http://www.w3.org/2000/svg">
<path d="M152.808 12.422L150.871 12.6334C150.816 12.4377 150.72 12.2537 150.583 12.0815C150.45 11.9093 150.27 11.7703 150.043 11.6646C149.816 11.559 149.538 11.5061 149.209 11.5061C148.767 11.5061 148.395 11.602 148.094 11.7938C147.796 11.9856 147.649 12.2341 147.653 12.5394C147.649 12.8017 147.745 13.015 147.941 13.1794C148.141 13.3438 148.469 13.4788 148.927 13.5845L150.465 13.9133C151.319 14.0973 151.953 14.3889 152.368 14.7881C152.787 15.1873 152.998 15.7099 153.002 16.3557C152.998 16.9233 152.832 17.4243 152.503 17.8587C152.178 18.2893 151.726 18.6259 151.147 18.8686C150.567 19.1112 149.902 19.2326 149.15 19.2326C148.047 19.2326 147.158 19.0017 146.485 18.5398C145.812 18.074 145.41 17.4262 145.281 16.5964L147.354 16.3968C147.448 16.8039 147.647 17.1111 147.953 17.3186C148.258 17.526 148.655 17.6298 149.144 17.6298C149.649 17.6298 150.055 17.526 150.36 17.3186C150.669 17.1111 150.824 16.8548 150.824 16.5495C150.824 16.2911 150.724 16.0778 150.524 15.9095C150.329 15.7412 150.023 15.612 149.608 15.522L148.07 15.1991C147.205 15.019 146.565 14.7157 146.15 14.2891C145.735 13.8585 145.53 13.3144 145.534 12.6569C145.53 12.1011 145.68 11.6196 145.986 11.2126C146.295 10.8016 146.724 10.4845 147.272 10.2614C147.823 10.0344 148.46 9.9209 149.18 9.9209C150.237 9.9209 151.068 10.146 151.675 10.5961C152.286 11.0462 152.663 11.6549 152.808 12.422Z" fill="white"/>
<path d="M135.359 19.0564V7.03223H137.485V11.5295H137.573C137.682 11.3104 137.837 11.0775 138.037 10.8309C138.236 10.5804 138.506 10.3671 138.847 10.1909C139.187 10.0109 139.622 9.92085 140.15 9.92085C140.847 9.92085 141.475 10.0989 142.035 10.4551C142.599 10.8074 143.045 11.3299 143.374 12.0227C143.706 12.7116 143.873 13.5571 143.873 14.5591C143.873 15.5493 143.71 16.3909 143.385 17.0837C143.06 17.7765 142.618 18.3049 142.058 18.6689C141.499 19.0329 140.865 19.2149 140.156 19.2149C139.639 19.2149 139.211 19.1288 138.87 18.9566C138.53 18.7844 138.256 18.5769 138.048 18.3342C137.845 18.0877 137.686 17.8548 137.573 17.6356H137.45V19.0564H135.359ZM137.444 14.5473C137.444 15.1305 137.526 15.6413 137.69 16.0797C137.859 16.5181 138.099 16.8606 138.412 17.1072C138.729 17.3498 139.113 17.4712 139.563 17.4712C140.033 17.4712 140.426 17.3459 140.743 17.0954C141.06 16.841 141.299 16.4946 141.46 16.0562C141.624 15.6139 141.706 15.111 141.706 14.5473C141.706 13.9876 141.626 13.4905 141.465 13.0561C141.305 12.6216 141.066 12.2811 140.749 12.0345C140.432 11.7879 140.037 11.6646 139.563 11.6646C139.109 11.6646 138.724 11.784 138.407 12.0227C138.089 12.2615 137.849 12.5961 137.684 13.0267C137.524 13.4573 137.444 13.9641 137.444 14.5473Z" fill="white"/>
<path d="M128.365 19.2385C127.794 19.2385 127.279 19.1367 126.821 18.9332C126.367 18.7257 126.007 18.4204 125.741 18.0173C125.479 17.6141 125.348 17.117 125.348 16.526C125.348 16.0171 125.442 15.5964 125.629 15.2637C125.817 14.931 126.074 14.6648 126.399 14.4652C126.723 14.2656 127.089 14.1149 127.497 14.0131C127.907 13.9074 128.332 13.8311 128.771 13.7841C129.299 13.7293 129.728 13.6804 130.056 13.6374C130.385 13.5904 130.624 13.5199 130.773 13.426C130.925 13.3281 131.002 13.1774 131.002 12.9739V12.9387C131.002 12.4964 130.87 12.1539 130.608 11.9112C130.346 11.6686 129.968 11.5472 129.475 11.5472C128.955 11.5472 128.542 11.6607 128.236 11.8877C127.935 12.1148 127.731 12.3829 127.626 12.6921L125.641 12.4103C125.798 11.8623 126.056 11.4043 126.416 11.0364C126.776 10.6646 127.217 10.3867 127.737 10.2027C128.258 10.0148 128.833 9.9209 129.463 9.9209C129.898 9.9209 130.33 9.97178 130.761 10.0735C131.191 10.1753 131.585 10.3436 131.941 10.5785C132.297 10.8094 132.583 11.1245 132.798 11.5237C133.017 11.923 133.127 12.422 133.127 13.0209V19.0565H131.084V17.8176H131.013C130.884 18.0681 130.702 18.303 130.467 18.5222C130.236 18.7375 129.945 18.9116 129.593 19.0447C129.244 19.1739 128.835 19.2385 128.365 19.2385ZM128.917 17.6767C129.344 17.6767 129.714 17.5926 130.027 17.4243C130.34 17.252 130.581 17.025 130.749 16.7432C130.921 16.4614 131.007 16.1541 131.007 15.8214V14.7587C130.941 14.8135 130.827 14.8644 130.667 14.9114C130.51 14.9584 130.334 14.9995 130.139 15.0347C129.943 15.0699 129.749 15.1012 129.557 15.1286C129.365 15.156 129.199 15.1795 129.058 15.1991C128.741 15.2421 128.457 15.3126 128.207 15.4105C127.956 15.5083 127.759 15.6453 127.614 15.8214C127.469 15.9937 127.397 16.2168 127.397 16.4907C127.397 16.8822 127.54 17.1777 127.825 17.3773C128.111 17.5769 128.475 17.6767 128.917 17.6767Z" fill="white"/>
<path d="M116.5 19.0564V7.03223H118.678V17.2305H123.974V19.0564H116.5Z" fill="white"/>
<path d="M106.696 19.2326C105.796 19.2326 105.023 19.0349 104.377 18.6396C103.735 18.2443 103.24 17.6983 102.892 17.0015C102.547 16.3009 102.375 15.4946 102.375 14.5826C102.375 13.6667 102.551 12.8584 102.903 12.1578C103.256 11.4533 103.753 10.9053 104.395 10.5139C105.041 10.1186 105.804 9.9209 106.684 9.9209C107.416 9.9209 108.064 10.0559 108.628 10.326C109.195 10.5922 109.647 10.9699 109.984 11.4591C110.321 11.9445 110.512 12.512 110.559 13.1618H108.528C108.446 12.7273 108.25 12.3653 107.941 12.0756C107.636 11.7821 107.227 11.6353 106.714 11.6353C106.279 11.6353 105.898 11.7527 105.569 11.9876C105.24 12.2185 104.984 12.5512 104.8 12.9857C104.62 13.4201 104.53 13.9407 104.53 14.5474C104.53 15.1619 104.62 15.6903 104.8 16.1326C104.98 16.571 105.232 16.9096 105.557 17.1483C105.886 17.3832 106.271 17.5006 106.714 17.5006C107.027 17.5006 107.307 17.4419 107.553 17.3245C107.804 17.2031 108.013 17.0289 108.182 16.8019C108.35 16.5749 108.465 16.299 108.528 15.9741H110.559C110.509 16.6121 110.321 17.1777 109.996 17.6709C109.671 18.1601 109.229 18.5437 108.669 18.8216C108.109 19.0956 107.452 19.2326 106.696 19.2326Z" fill="white"/>
<path d="M98.4535 19.0566V10.0385H100.579V19.0566H98.4535ZM99.522 8.75855C99.1854 8.75855 98.8957 8.64699 98.6531 8.42389C98.4104 8.19687 98.2891 7.92484 98.2891 7.60779C98.2891 7.28684 98.4104 7.0148 98.6531 6.7917C98.8957 6.56468 99.1854 6.45117 99.522 6.45117C99.8625 6.45117 100.152 6.56468 100.391 6.7917C100.634 7.0148 100.755 7.28684 100.755 7.60779C100.755 7.92484 100.634 8.19687 100.391 8.42389C100.152 8.64699 99.8625 8.75855 99.522 8.75855Z" fill="white"/>
<path d="M96.6725 10.0385V11.6825H91.4883V10.0385H96.6725ZM92.7682 7.87793H94.8936V16.3442C94.8936 16.6299 94.9366 16.8491 95.0227 17.0017C95.1128 17.1505 95.2302 17.2522 95.375 17.307C95.5198 17.3618 95.6803 17.3892 95.8564 17.3892C95.9895 17.3892 96.1109 17.3795 96.2204 17.3599C96.334 17.3403 96.4201 17.3227 96.4788 17.307L96.8369 18.9686C96.7234 19.0077 96.561 19.0508 96.3496 19.0978C96.1422 19.1447 95.8877 19.1721 95.5864 19.1799C95.054 19.1956 94.5746 19.1154 94.1479 18.9392C93.7213 18.7592 93.3827 18.4813 93.1322 18.1055C92.8856 17.7298 92.7643 17.2601 92.7682 16.6964V7.87793Z" fill="white"/>
<path d="M85.2717 19.2385C84.7002 19.2385 84.1855 19.1367 83.7276 18.9332C83.2735 18.7257 82.9134 18.4204 82.6473 18.0173C82.385 17.6141 82.2539 17.117 82.2539 16.526C82.2539 16.0171 82.3478 15.5964 82.5357 15.2637C82.7236 14.931 82.98 14.6648 83.3048 14.4652C83.6297 14.2656 83.9957 14.1149 84.4028 14.0131C84.8137 13.9074 85.2384 13.8311 85.6768 13.7841C86.2052 13.7293 86.6338 13.6804 86.9626 13.6374C87.2914 13.5904 87.5301 13.5199 87.6789 13.426C87.8315 13.3281 87.9079 13.1774 87.9079 12.9739V12.9387C87.9079 12.4964 87.7767 12.1539 87.5145 11.9112C87.2522 11.6686 86.8745 11.5472 86.3813 11.5472C85.8608 11.5472 85.4478 11.6607 85.1425 11.8877C84.8411 12.1148 84.6376 12.3829 84.5319 12.6921L82.5475 12.4103C82.704 11.8623 82.9624 11.4043 83.3225 11.0364C83.6826 10.6646 84.1229 10.3867 84.6435 10.2027C85.1641 10.0148 85.7394 9.9209 86.3696 9.9209C86.8041 9.9209 87.2366 9.97178 87.6671 10.0735C88.0977 10.1753 88.4911 10.3436 88.8472 10.5785C89.2034 10.8094 89.4892 11.1245 89.7044 11.5237C89.9236 11.923 90.0332 12.422 90.0332 13.0209V19.0565H87.99V17.8176H87.9196C87.7904 18.0681 87.6084 18.303 87.3736 18.5222C87.1426 18.7375 86.851 18.9116 86.4988 19.0447C86.1504 19.1739 85.7414 19.2385 85.2717 19.2385ZM85.8236 17.6767C86.2502 17.6767 86.6201 17.5926 86.9332 17.4243C87.2464 17.252 87.4871 17.025 87.6554 16.7432C87.8276 16.4614 87.9137 16.1541 87.9137 15.8214V14.7587C87.8472 14.8135 87.7337 14.8644 87.5732 14.9114C87.4166 14.9584 87.2405 14.9995 87.0448 15.0347C86.8491 15.0699 86.6553 15.1012 86.4635 15.1286C86.2717 15.156 86.1054 15.1795 85.9645 15.1991C85.6474 15.2421 85.3637 15.3126 85.1132 15.4105C84.8627 15.5083 84.665 15.6453 84.5202 15.8214C84.3754 15.9937 84.3029 16.2168 84.3029 16.4907C84.3029 16.8822 84.4458 17.1777 84.7315 17.3773C85.0173 17.5769 85.3813 17.6767 85.8236 17.6767Z" fill="white"/>
<path d="M67.8398 19.0565V10.0383H69.8713V11.5707H69.977C70.1648 11.054 70.476 10.6509 70.9105 10.3612C71.3449 10.0677 71.8636 9.9209 72.4663 9.9209C73.0769 9.9209 73.5916 10.0696 74.0105 10.3671C74.4332 10.6607 74.7307 11.0619 74.9029 11.5707H74.9968C75.1964 11.0697 75.533 10.6705 76.0067 10.373C76.4842 10.0716 77.0498 9.9209 77.7034 9.9209C78.5332 9.9209 79.2104 10.1831 79.7348 10.7076C80.2593 11.2321 80.5216 11.9973 80.5216 13.0033V19.0565H78.3904V13.3321C78.3904 12.7723 78.2416 12.3633 77.9441 12.105C77.6467 11.8427 77.2827 11.7116 76.8521 11.7116C76.3394 11.7116 75.9382 11.8721 75.6485 12.193C75.3628 12.5101 75.2199 12.923 75.2199 13.4319V19.0565H73.1356V13.244C73.1356 12.7782 72.9947 12.4064 72.7129 12.1285C72.435 11.8506 72.071 11.7116 71.6209 11.7116C71.3156 11.7116 71.0377 11.7899 70.7872 11.9465C70.5367 12.0991 70.3371 12.3163 70.1883 12.5982C70.0396 12.8761 69.9652 13.2009 69.9652 13.5728V19.0565H67.8398Z" fill="white"/>
<path d="M65.894 12.422L63.9566 12.6334C63.9018 12.4377 63.8059 12.2537 63.6689 12.0815C63.5358 11.9093 63.3557 11.7703 63.1287 11.6646C62.9017 11.559 62.6238 11.5061 62.295 11.5061C61.8527 11.5061 61.4809 11.602 61.1795 11.7938C60.882 11.9856 60.7352 12.2341 60.7391 12.5394C60.7352 12.8017 60.8311 13.015 61.0268 13.1794C61.2265 13.3438 61.5552 13.4788 62.0132 13.5845L63.5514 13.9133C64.4047 14.0973 65.0388 14.3889 65.4537 14.7881C65.8725 15.1873 66.0839 15.7099 66.0878 16.3557C66.0839 16.9233 65.9175 17.4243 65.5887 17.8587C65.2639 18.2893 64.8118 18.6259 64.2325 18.8686C63.6532 19.1112 62.9878 19.2326 62.2363 19.2326C61.1325 19.2326 60.244 19.0017 59.5708 18.5398C58.8976 18.074 58.4964 17.4262 58.3672 16.5964L60.4397 16.3968C60.5337 16.8039 60.7333 17.1111 61.0386 17.3186C61.3439 17.526 61.7412 17.6298 62.2304 17.6298C62.7353 17.6298 63.1405 17.526 63.4458 17.3186C63.755 17.1111 63.9096 16.8548 63.9096 16.5495C63.9096 16.2911 63.8098 16.0778 63.6101 15.9095C63.4144 15.7412 63.1091 15.612 62.6942 15.522L61.156 15.1991C60.291 15.019 59.651 14.7157 59.2361 14.2891C58.8212 13.8585 58.6157 13.3144 58.6196 12.6569C58.6157 12.1011 58.7664 11.6196 59.0717 11.2126C59.3809 10.8016 59.8095 10.4845 60.3575 10.2614C60.9094 10.0344 61.5455 9.9209 62.2657 9.9209C63.3225 9.9209 64.1542 10.146 64.7609 10.5961C65.3715 11.0462 65.7492 11.6549 65.894 12.422Z" fill="white"/>
<path d="M50.5607 22.438C50.2711 22.438 50.003 22.4145 49.7564 22.3676C49.5137 22.3245 49.32 22.2736 49.1751 22.2149L49.6683 20.5592C49.9775 20.6493 50.2535 20.6923 50.4962 20.6884C50.7388 20.6845 50.9521 20.6082 51.1361 20.4594C51.324 20.3146 51.4825 20.0719 51.6117 19.7314L51.7937 19.2441L48.5234 10.0381H50.778L52.8564 16.8487H52.9503L55.0346 10.0381H57.295L53.6842 20.1483C53.5159 20.6258 53.2928 21.0348 53.0149 21.3753C52.737 21.7198 52.3965 21.982 51.9933 22.1621C51.5941 22.346 51.1165 22.438 50.5607 22.438Z" fill="white"/>
<path d="M42.4102 19.0565V10.0383H44.4709V11.5414H44.5649C44.7293 11.0208 45.0111 10.6196 45.4103 10.3378C45.8135 10.052 46.2734 9.90918 46.7901 9.90918C46.9075 9.90918 47.0386 9.91505 47.1834 9.92679C47.3322 9.93462 47.4555 9.94832 47.5533 9.96789V11.923C47.4633 11.8917 47.3204 11.8643 47.1247 11.8408C46.9329 11.8134 46.747 11.7997 46.5669 11.7997C46.1795 11.7997 45.8311 11.8839 45.5219 12.0522C45.2166 12.2166 44.9759 12.4455 44.7997 12.7391C44.6236 13.0326 44.5355 13.3712 44.5355 13.7548V19.0565H42.4102Z" fill="white"/>
<path d="M31.8633 19.0564V7.03223H36.3723C37.2961 7.03223 38.0711 7.20445 38.6973 7.54889C39.3275 7.89333 39.8031 8.36694 40.124 8.96972C40.4489 9.56858 40.6113 10.2496 40.6113 11.0129C40.6113 11.784 40.4489 12.4689 40.124 13.0678C39.7992 13.6667 39.3197 14.1383 38.6856 14.4828C38.0515 14.8233 37.2706 14.9935 36.343 14.9935H33.3546V13.2028H36.0494C36.5896 13.2028 37.0319 13.1089 37.3763 12.921C37.7208 12.7331 37.9752 12.4748 38.1396 12.146C38.3079 11.8172 38.392 11.4395 38.392 11.0129C38.392 10.5862 38.3079 10.2105 38.1396 9.88562C37.9752 9.56075 37.7188 9.30829 37.3704 9.12824C37.026 8.94427 36.5818 8.85229 36.0377 8.85229H34.0415V19.0564H31.8633Z" fill="white"/>
<g clip-path="url(#clip0_2815_9509)">
<path d="M0.183594 19.2959L11.8147 12.415V26.1768L0.183594 19.2959Z" fill="#00FFFF"/>
<path d="M23.4453 19.2959L11.8142 12.415V26.1768L23.4453 19.2959Z" fill="#009695"/>
<path d="M3.25469 14.5246L8.79243 16.2437L0.134625 19.3468L3.25469 14.5246Z" fill="#00FFFF"/>
<path d="M20.325 14.1747L14.6027 16.0987L23.4527 19.2707L20.325 14.1747Z" fill="#009695"/>
<path d="M11.9202 0L21.1763 15.478H2.66406L11.9202 0Z" fill="#00FFFF"/>
<path d="M11.8147 26.0029L2.69848 15.4779L20.8477 15.4779L11.8147 26.0029Z" fill="#00C1C1"/>
<path d="M11.8147 26.0029L2.69848 15.4779L20.8477 15.4779L11.8147 26.0029Z" fill="#00C1C1"/>
<path d="M5.67051 10.4429L8.51031 15.4867L2.65366 15.386L5.67051 10.4429Z" fill="white"/>
<path d="M21.7695 16.9229H21.9791V17.3356H21.7695V16.9229Z" fill="#009695"/>
<path d="M20.7227 15.478H21.1418V16.0971H20.7227V15.478Z" fill="#009695"/>
</g>
<defs>
<clipPath id="clip0_2815_9509">
<rect width="23.5193" height="26.1818" fill="white"/>
</clipPath>
</defs>
</svg>
