<svg width="131" height="26" viewBox="0 0 131 26" fill="none" xmlns="http://www.w3.org/2000/svg">
<path fill-rule="evenodd" clip-rule="evenodd" d="M123.146 6.08496H113.052C108.32 6.08496 104.449 10.0347 104.449 14.8641V17.1792C104.449 22.0086 108.32 25.9999 113.052 25.9999H123.146C127.879 25.9999 131.749 22.0086 131.749 17.1792V14.8641C131.749 10.0347 127.879 6.08496 123.146 6.08496ZM113.052 11.6584H123.146C124.875 11.6584 126.287 13.1022 126.287 14.8641V17.1764C126.287 18.9411 124.873 20.3822 123.146 20.3822H113.052C111.326 20.3822 109.911 18.9411 109.911 17.1764V14.8641C109.911 13.0994 111.323 11.6584 113.052 11.6584Z" fill="#8E46FF"/>
<path fill-rule="evenodd" clip-rule="evenodd" d="M68.2027 25.9999H62.1854V6.08496H68.2027V25.9999ZM78.0607 14.2722V25.9999H72.5963V9.46773C72.5963 8.81496 72.6885 8.25071 72.8728 7.77773C74.1522 4.51113 77.4969 6.78475 79.462 7.88837L93.7678 17.8486L93.9386 6.08496H99.4327V22.5203C99.4327 25.0207 98.5247 25.9999 96.0907 25.9999C94.2449 25.9999 94.1392 25.726 92.6105 24.7054C88.8483 22.1967 80.7955 16.1973 78.0607 14.275V14.2722ZM47.4188 18.2773H36.9455V25.9999H30.8984V6.08496H36.9455V13.116H51.5116V6.08496H57.5017V25.9999H51.5116V18.2773H47.4188Z" fill="#8E46FF"/>
<path fill-rule="evenodd" clip-rule="evenodd" d="M27.6468 26H19.6022L15.2708 20.7281L8.21005 20.717C6.96052 20.717 6.00643 21.6077 6.01185 22.8828L6.02541 26H0.0135742L2.18171e-05 20.8332C-0.0081096 18.0838 2.25784 15.8323 4.95206 15.8323H16.9296C17.0137 15.8323 17.095 15.8323 17.1736 15.8268H18.1466L18.2036 15.824H18.2605L18.3174 15.8157L18.3716 15.8102L18.4258 15.8019L18.48 15.7936L18.5342 15.7826L18.5884 15.7715L18.6399 15.7577L18.6942 15.7438L18.7457 15.7272L18.7971 15.7106L18.8486 15.6913L18.9002 15.6719L18.9489 15.6498L18.9977 15.6277L19.0465 15.6055L19.0953 15.5806L19.1441 15.5557L19.1902 15.5281L19.2362 15.5004L19.2823 15.4728L19.3257 15.4423L19.3691 15.4119L19.4124 15.3787L19.4558 15.3455L19.5371 15.2764L19.5778 15.2404L19.6157 15.2045L19.6537 15.1657L19.6916 15.127L19.7296 15.0855L19.7648 15.044L19.8326 14.9611L19.8651 14.9196L19.8976 14.8753L19.9274 14.8311L19.9572 14.7868L19.987 14.7398L20.0142 14.6928L20.0413 14.6457L20.0657 14.596L20.09 14.5462L20.1117 14.4964L20.1334 14.4466L20.1524 14.394L20.1714 14.3443L20.1903 14.2917L20.2066 14.2391L20.2229 14.1866L20.2364 14.1313L20.25 14.076L20.2608 14.0206L20.2716 13.9653L20.2798 13.91L20.2879 13.8547L20.296 13.7966L20.3015 13.7385V13.6804H20.3042V13.6223L20.3069 13.5643V13.5062V13.4481L20.3015 13.39L20.296 13.3319L20.2879 13.2766L20.2798 13.2213L20.2716 13.1632L20.2608 13.1079L20.25 13.0526L20.2364 12.9972L20.2229 12.9447L20.2066 12.8921L20.1903 12.8396L20.1714 12.787L20.1524 12.7345L20.1307 12.6819L20.109 12.6321L20.0873 12.5823L20.0629 12.5326L20.0385 12.4855L20.0114 12.4385L19.9843 12.3915L19.9545 12.3445L19.9247 12.3002L19.8949 12.256L19.8624 12.2117L19.8298 12.1674L19.7973 12.126L19.7621 12.0845L19.7268 12.043L19.6889 12.0015L19.6509 11.9628L19.613 11.924L19.5751 11.8881L19.5344 11.8521L19.4937 11.8162L19.4531 11.783L19.4097 11.7498L19.3664 11.7166L19.323 11.6862L19.2796 11.6557L19.2335 11.6281L19.1875 11.6004L19.1414 11.5728L19.0926 11.5479L19.0438 11.523L18.995 11.5009L18.9462 11.4787L18.8974 11.4594L18.8459 11.44L18.7944 11.4206L18.7429 11.404L18.6914 11.3874L18.6372 11.3736L18.5857 11.3598L18.5315 11.3487L18.4773 11.3377L18.4231 11.3294L18.3689 11.3211L18.3147 11.3155L18.2578 11.31H18.2008L17.507 11.2381C16.9269 11.2077 16.3225 11.1551 15.6747 11.1164C14.4631 11.0417 13.3274 10.9726 12.2459 10.956H12.2297C11.8583 10.9504 11.4951 10.9504 11.1374 10.956H0.176202C0.249385 10.7264 0.33341 10.5189 0.430987 10.3281C0.954108 9.18574 1.82688 8.26468 3.03305 7.56766C3.95732 7.03383 4.98187 6.66319 6.10943 6.45574C7.23699 6.2483 8.3266 6.14319 9.37826 6.14319C12.2215 6.14319 15.4118 6.39213 18.2117 6.14319C21.4372 5.85553 25.4785 3.85574 25.9094 0C26.8689 2.64702 26.5057 6.46681 25.2887 9.44298C26.0477 10.4774 26.4326 11.7415 26.4326 13.2351C26.4326 14.0068 26.316 14.737 26.0829 15.4313C25.8525 16.1228 25.5164 16.7479 25.08 17.3011C24.6436 17.8543 24.1124 18.3245 23.4808 18.7089C22.852 19.0934 22.1392 19.3672 21.345 19.5249L27.6468 26Z" fill="#8E46FF"/>
</svg>
